<mxfile host="65bd71144e" pages="8">
    <diagram id="K4LUTBxxY8_2V-uf_bO4" name="Login">
        <mxGraphModel dx="983" dy="771" grid="1" gridSize="10" guides="1" tooltips="1" connect="1" arrows="1" fold="1" page="1" pageScale="1" pageWidth="850" pageHeight="1100" math="0" shadow="0">
            <root>
                <mxCell id="0"/>
                <mxCell id="1" parent="0"/>
                <mxCell id="vcb_RcMyaUm9Q2JWXody-1" value="" style="rounded=0;whiteSpace=wrap;html=1;" parent="1" vertex="1">
                    <mxGeometry x="40" y="40" width="760" height="440" as="geometry"/>
                </mxCell>
                <mxCell id="vcb_RcMyaUm9Q2JWXody-2" value="&lt;font style=&quot;font-size: 16px&quot;&gt;Sistem Informasi Manajemen Pengarsipan&lt;/font&gt;" style="text;html=1;strokeColor=none;fillColor=none;align=center;verticalAlign=middle;whiteSpace=wrap;rounded=0;fontSize=21;" parent="1" vertex="1">
                    <mxGeometry x="80" y="80" width="320" height="50" as="geometry"/>
                </mxCell>
                <mxCell id="vcb_RcMyaUm9Q2JWXody-3" value="&lt;font size=&quot;1&quot;&gt;Logo Dinas Lingkungan Hidup Kota Madiun&lt;/font&gt;" style="ellipse;whiteSpace=wrap;html=1;aspect=fixed;fontSize=21;" parent="1" vertex="1">
                    <mxGeometry x="175" y="140" width="130" height="130" as="geometry"/>
                </mxCell>
                <mxCell id="vcb_RcMyaUm9Q2JWXody-4" value="&lt;font style=&quot;font-size: 16px&quot;&gt;Dinas Lingkungan Hidup Kota Madiun&lt;/font&gt;" style="text;html=1;strokeColor=none;fillColor=none;align=center;verticalAlign=middle;whiteSpace=wrap;rounded=0;fontSize=21;" parent="1" vertex="1">
                    <mxGeometry x="80" y="290" width="320" height="50" as="geometry"/>
                </mxCell>
                <mxCell id="vcb_RcMyaUm9Q2JWXody-5" value="" style="rounded=0;whiteSpace=wrap;html=1;fontSize=16;" parent="1" vertex="1">
                    <mxGeometry x="40" y="420" width="760" height="60" as="geometry"/>
                </mxCell>
                <mxCell id="vcb_RcMyaUm9Q2JWXody-6" value="Dinas Lingkungan Hidup Kota Madiun 2022" style="text;html=1;strokeColor=none;fillColor=none;align=center;verticalAlign=middle;whiteSpace=wrap;rounded=0;fontSize=14;" parent="1" vertex="1">
                    <mxGeometry x="60" y="435" width="290" height="30" as="geometry"/>
                </mxCell>
                <mxCell id="vcb_RcMyaUm9Q2JWXody-7" value="&lt;font style=&quot;font-size: 16px&quot;&gt;Halaman Login&lt;/font&gt;" style="text;html=1;strokeColor=none;fillColor=none;align=center;verticalAlign=middle;whiteSpace=wrap;rounded=0;fontSize=21;" parent="1" vertex="1">
                    <mxGeometry x="560" y="90" width="150" height="30" as="geometry"/>
                </mxCell>
                <mxCell id="vcb_RcMyaUm9Q2JWXody-8" value="Email" style="rounded=1;whiteSpace=wrap;html=1;fontSize=16;align=left;fontColor=#999999;" parent="1" vertex="1">
                    <mxGeometry x="540" y="140" width="190" height="30" as="geometry"/>
                </mxCell>
                <mxCell id="vcb_RcMyaUm9Q2JWXody-9" value="Password" style="rounded=1;whiteSpace=wrap;html=1;fontSize=16;align=left;fontColor=#999999;" parent="1" vertex="1">
                    <mxGeometry x="540" y="190" width="190" height="30" as="geometry"/>
                </mxCell>
                <mxCell id="vcb_RcMyaUm9Q2JWXody-10" value="Masuk" style="rounded=1;whiteSpace=wrap;html=1;fontSize=16;" parent="1" vertex="1">
                    <mxGeometry x="540" y="270" width="190" height="30" as="geometry"/>
                </mxCell>
                <mxCell id="vcb_RcMyaUm9Q2JWXody-12" value="" style="whiteSpace=wrap;html=1;aspect=fixed;labelBackgroundColor=#ffffff;fontSize=16;fontColor=#999999;rounded=1;arcSize=0;" parent="1" vertex="1">
                    <mxGeometry x="540" y="230" width="20" height="20" as="geometry"/>
                </mxCell>
                <mxCell id="vcb_RcMyaUm9Q2JWXody-13" value="&lt;font color=&quot;#000000&quot;&gt;Ingat Saya&lt;/font&gt;" style="text;html=1;strokeColor=none;fillColor=none;align=center;verticalAlign=middle;whiteSpace=wrap;rounded=0;labelBackgroundColor=#ffffff;fontSize=16;fontColor=#999999;" parent="1" vertex="1">
                    <mxGeometry x="550" y="225" width="120" height="30" as="geometry"/>
                </mxCell>
            </root>
        </mxGraphModel>
    </diagram>
    <diagram id="IfG4-j13MOFBMPRym_AE" name="Arsip">
        <mxGraphModel dx="983" dy="771" grid="1" gridSize="10" guides="1" tooltips="1" connect="1" arrows="1" fold="1" page="1" pageScale="1" pageWidth="850" pageHeight="1100" math="0" shadow="0">
            <root>
                <mxCell id="zumGGa5CJThketpORV2P-0"/>
                <mxCell id="zumGGa5CJThketpORV2P-1" parent="zumGGa5CJThketpORV2P-0"/>
                <mxCell id="zlDvcojfpH7KR3gQ91iM-0" value="" style="rounded=0;whiteSpace=wrap;html=1;" parent="zumGGa5CJThketpORV2P-1" vertex="1">
                    <mxGeometry x="40" y="40" width="760" height="440" as="geometry"/>
                </mxCell>
                <mxCell id="zlDvcojfpH7KR3gQ91iM-4" value="SIM Arsip DLH Kota Madiun" style="rounded=0;whiteSpace=wrap;html=1;fontSize=16;align=left;" parent="zumGGa5CJThketpORV2P-1" vertex="1">
                    <mxGeometry x="40" y="40" width="760" height="60" as="geometry"/>
                </mxCell>
                <mxCell id="zlDvcojfpH7KR3gQ91iM-12" value="Keluar" style="rounded=0;whiteSpace=wrap;html=1;labelBackgroundColor=#ffffff;fontSize=16;fontColor=#000000;" parent="zumGGa5CJThketpORV2P-1" vertex="1">
                    <mxGeometry x="720" y="40" width="80" height="60" as="geometry"/>
                </mxCell>
                <mxCell id="zlDvcojfpH7KR3gQ91iM-13" value="" style="rounded=0;whiteSpace=wrap;html=1;labelBackgroundColor=#ffffff;fontSize=16;fontColor=#000000;" parent="zumGGa5CJThketpORV2P-1" vertex="1">
                    <mxGeometry x="40" y="100" width="210" height="380" as="geometry"/>
                </mxCell>
                <mxCell id="zlDvcojfpH7KR3gQ91iM-15" value="Data Arsip" style="text;html=1;strokeColor=none;fillColor=none;align=left;verticalAlign=middle;whiteSpace=wrap;rounded=0;labelBackgroundColor=#ffffff;fontSize=16;fontColor=#000000;" parent="zumGGa5CJThketpORV2P-1" vertex="1">
                    <mxGeometry x="50" y="110" width="190" height="30" as="geometry"/>
                </mxCell>
                <mxCell id="zlDvcojfpH7KR3gQ91iM-16" value="&lt;font style=&quot;font-size: 11px&quot;&gt;Administrator&lt;/font&gt;" style="text;html=1;strokeColor=none;fillColor=none;align=left;verticalAlign=middle;whiteSpace=wrap;rounded=0;labelBackgroundColor=#ffffff;fontSize=16;fontColor=#000000;" parent="zumGGa5CJThketpORV2P-1" vertex="1">
                    <mxGeometry x="50" y="140" width="70" height="20" as="geometry"/>
                </mxCell>
                <mxCell id="zlDvcojfpH7KR3gQ91iM-17" value="Arsip Bidang" style="text;html=1;strokeColor=none;fillColor=none;align=left;verticalAlign=middle;whiteSpace=wrap;rounded=0;labelBackgroundColor=#ffffff;fontSize=16;fontColor=#000000;" parent="zumGGa5CJThketpORV2P-1" vertex="1">
                    <mxGeometry x="50" y="160" width="190" height="30" as="geometry"/>
                </mxCell>
                <mxCell id="zlDvcojfpH7KR3gQ91iM-21" value="" style="rounded=0;whiteSpace=wrap;html=1;labelBackgroundColor=#ffffff;fontSize=11;fontColor=#000000;" parent="zumGGa5CJThketpORV2P-1" vertex="1">
                    <mxGeometry x="50" y="190" width="190" height="80" as="geometry"/>
                </mxCell>
                <mxCell id="zlDvcojfpH7KR3gQ91iM-22" value="&lt;font style=&quot;font-size: 14px&quot;&gt;Bidang 1&lt;/font&gt;" style="rounded=0;whiteSpace=wrap;html=1;labelBackgroundColor=#ffffff;fontSize=11;fontColor=#000000;" parent="zumGGa5CJThketpORV2P-1" vertex="1">
                    <mxGeometry x="50" y="190" width="190" height="40" as="geometry"/>
                </mxCell>
                <mxCell id="zlDvcojfpH7KR3gQ91iM-23" value="&lt;font style=&quot;font-size: 14px&quot;&gt;Bidang 2&lt;/font&gt;" style="rounded=0;whiteSpace=wrap;html=1;labelBackgroundColor=#ffffff;fontSize=11;fontColor=#000000;" parent="zumGGa5CJThketpORV2P-1" vertex="1">
                    <mxGeometry x="50" y="230" width="190" height="40" as="geometry"/>
                </mxCell>
                <mxCell id="zlDvcojfpH7KR3gQ91iM-24" value="Kategori" style="text;html=1;strokeColor=none;fillColor=none;align=left;verticalAlign=middle;whiteSpace=wrap;rounded=0;labelBackgroundColor=#ffffff;fontSize=16;fontColor=#000000;" parent="zumGGa5CJThketpORV2P-1" vertex="1">
                    <mxGeometry x="50" y="280" width="190" height="30" as="geometry"/>
                </mxCell>
                <mxCell id="zlDvcojfpH7KR3gQ91iM-25" value="Bidang" style="text;html=1;strokeColor=none;fillColor=none;align=left;verticalAlign=middle;whiteSpace=wrap;rounded=0;labelBackgroundColor=#ffffff;fontSize=16;fontColor=#000000;" parent="zumGGa5CJThketpORV2P-1" vertex="1">
                    <mxGeometry x="50" y="310" width="190" height="30" as="geometry"/>
                </mxCell>
                <mxCell id="zlDvcojfpH7KR3gQ91iM-26" value="Pengguna" style="text;html=1;strokeColor=none;fillColor=none;align=left;verticalAlign=middle;whiteSpace=wrap;rounded=0;labelBackgroundColor=#ffffff;fontSize=16;fontColor=#000000;" parent="zumGGa5CJThketpORV2P-1" vertex="1">
                    <mxGeometry x="50" y="340" width="190" height="30" as="geometry"/>
                </mxCell>
                <mxCell id="zlDvcojfpH7KR3gQ91iM-27" value="&lt;font style=&quot;font-size: 11px&quot;&gt;Sistem&lt;/font&gt;" style="text;html=1;strokeColor=none;fillColor=none;align=left;verticalAlign=middle;whiteSpace=wrap;rounded=0;labelBackgroundColor=#ffffff;fontSize=16;fontColor=#000000;" parent="zumGGa5CJThketpORV2P-1" vertex="1">
                    <mxGeometry x="50" y="370" width="70" height="20" as="geometry"/>
                </mxCell>
                <mxCell id="zlDvcojfpH7KR3gQ91iM-28" value="Ganti Password" style="text;html=1;strokeColor=none;fillColor=none;align=left;verticalAlign=middle;whiteSpace=wrap;rounded=0;labelBackgroundColor=#ffffff;fontSize=16;fontColor=#000000;" parent="zumGGa5CJThketpORV2P-1" vertex="1">
                    <mxGeometry x="50" y="390" width="190" height="30" as="geometry"/>
                </mxCell>
                <mxCell id="zlDvcojfpH7KR3gQ91iM-29" value="Selamat Datang, Administrator" style="text;html=1;strokeColor=none;fillColor=none;align=left;verticalAlign=middle;whiteSpace=wrap;rounded=0;labelBackgroundColor=#ffffff;fontSize=20;fontColor=#000000;fontStyle=0" parent="zumGGa5CJThketpORV2P-1" vertex="1">
                    <mxGeometry x="260" y="110" width="360" height="30" as="geometry"/>
                </mxCell>
                <mxCell id="zlDvcojfpH7KR3gQ91iM-30" value="" style="shape=table;html=1;whiteSpace=wrap;startSize=0;container=1;collapsible=0;childLayout=tableLayout;rounded=1;labelBackgroundColor=#ffffff;fontSize=12;fontColor=#000000;" parent="zumGGa5CJThketpORV2P-1" vertex="1">
                    <mxGeometry x="260" y="225" width="510" height="240" as="geometry"/>
                </mxCell>
                <mxCell id="zlDvcojfpH7KR3gQ91iM-31" value="" style="shape=tableRow;horizontal=0;startSize=0;swimlaneHead=0;swimlaneBody=0;top=0;left=0;bottom=0;right=0;collapsible=0;dropTarget=0;fillColor=none;points=[[0,0.5],[1,0.5]];portConstraint=eastwest;rounded=1;labelBackgroundColor=#ffffff;fontSize=20;fontColor=#000000;" parent="zlDvcojfpH7KR3gQ91iM-30" vertex="1">
                    <mxGeometry width="510" height="40" as="geometry"/>
                </mxCell>
                <mxCell id="zlDvcojfpH7KR3gQ91iM-32" value="#" style="shape=partialRectangle;html=1;whiteSpace=wrap;connectable=0;fillColor=none;top=0;left=0;bottom=0;right=0;overflow=hidden;rounded=1;labelBackgroundColor=#ffffff;fontSize=13;fontColor=#000000;" parent="zlDvcojfpH7KR3gQ91iM-31" vertex="1">
                    <mxGeometry width="75" height="40" as="geometry">
                        <mxRectangle width="75" height="40" as="alternateBounds"/>
                    </mxGeometry>
                </mxCell>
                <mxCell id="zlDvcojfpH7KR3gQ91iM-33" value="&lt;font style=&quot;font-size: 13px;&quot;&gt;Judul&lt;/font&gt;" style="shape=partialRectangle;html=1;whiteSpace=wrap;connectable=0;fillColor=none;top=0;left=0;bottom=0;right=0;overflow=hidden;rounded=1;labelBackgroundColor=#ffffff;fontSize=13;fontColor=#000000;" parent="zlDvcojfpH7KR3gQ91iM-31" vertex="1">
                    <mxGeometry x="75" width="74" height="40" as="geometry">
                        <mxRectangle width="74" height="40" as="alternateBounds"/>
                    </mxGeometry>
                </mxCell>
                <mxCell id="zlDvcojfpH7KR3gQ91iM-34" value="&lt;span style=&quot;font-size: 13px;&quot;&gt;Kategori&lt;/span&gt;" style="shape=partialRectangle;html=1;whiteSpace=wrap;connectable=0;fillColor=none;top=0;left=0;bottom=0;right=0;overflow=hidden;rounded=1;labelBackgroundColor=#ffffff;fontSize=13;fontColor=#000000;" parent="zlDvcojfpH7KR3gQ91iM-31" vertex="1">
                    <mxGeometry x="149" width="75" height="40" as="geometry">
                        <mxRectangle width="75" height="40" as="alternateBounds"/>
                    </mxGeometry>
                </mxCell>
                <mxCell id="zlDvcojfpH7KR3gQ91iM-59" value="&lt;span style=&quot;font-size: 13px;&quot;&gt;Bidang&lt;/span&gt;" style="shape=partialRectangle;html=1;whiteSpace=wrap;connectable=0;fillColor=none;top=0;left=0;bottom=0;right=0;overflow=hidden;rounded=1;labelBackgroundColor=#ffffff;fontSize=13;fontColor=#000000;" parent="zlDvcojfpH7KR3gQ91iM-31" vertex="1">
                    <mxGeometry x="224" width="75" height="40" as="geometry">
                        <mxRectangle width="75" height="40" as="alternateBounds"/>
                    </mxGeometry>
                </mxCell>
                <mxCell id="zlDvcojfpH7KR3gQ91iM-62" value="&lt;span style=&quot;font-size: 13px;&quot;&gt;Ditambahkan Pada&lt;/span&gt;" style="shape=partialRectangle;html=1;whiteSpace=wrap;connectable=0;fillColor=none;top=0;left=0;bottom=0;right=0;overflow=hidden;rounded=1;labelBackgroundColor=#ffffff;fontSize=13;fontColor=#000000;" parent="zlDvcojfpH7KR3gQ91iM-31" vertex="1">
                    <mxGeometry x="299" width="149" height="40" as="geometry">
                        <mxRectangle width="149" height="40" as="alternateBounds"/>
                    </mxGeometry>
                </mxCell>
                <mxCell id="zlDvcojfpH7KR3gQ91iM-65" value="&lt;span style=&quot;font-size: 13px;&quot;&gt;Aksi&lt;/span&gt;" style="shape=partialRectangle;html=1;whiteSpace=wrap;connectable=0;fillColor=none;top=0;left=0;bottom=0;right=0;overflow=hidden;rounded=1;labelBackgroundColor=#ffffff;fontSize=13;fontColor=#000000;" parent="zlDvcojfpH7KR3gQ91iM-31" vertex="1">
                    <mxGeometry x="448" width="62" height="40" as="geometry">
                        <mxRectangle width="62" height="40" as="alternateBounds"/>
                    </mxGeometry>
                </mxCell>
                <mxCell id="zlDvcojfpH7KR3gQ91iM-35" value="" style="shape=tableRow;horizontal=0;startSize=0;swimlaneHead=0;swimlaneBody=0;top=0;left=0;bottom=0;right=0;collapsible=0;dropTarget=0;fillColor=none;points=[[0,0.5],[1,0.5]];portConstraint=eastwest;rounded=1;labelBackgroundColor=#ffffff;fontSize=20;fontColor=#000000;" parent="zlDvcojfpH7KR3gQ91iM-30" vertex="1">
                    <mxGeometry y="40" width="510" height="40" as="geometry"/>
                </mxCell>
                <mxCell id="zlDvcojfpH7KR3gQ91iM-36" value="" style="shape=partialRectangle;html=1;whiteSpace=wrap;connectable=0;fillColor=none;top=0;left=0;bottom=0;right=0;overflow=hidden;rounded=1;labelBackgroundColor=#ffffff;fontSize=20;fontColor=#000000;" parent="zlDvcojfpH7KR3gQ91iM-35" vertex="1">
                    <mxGeometry width="75" height="40" as="geometry">
                        <mxRectangle width="75" height="40" as="alternateBounds"/>
                    </mxGeometry>
                </mxCell>
                <mxCell id="zlDvcojfpH7KR3gQ91iM-37" value="" style="shape=partialRectangle;html=1;whiteSpace=wrap;connectable=0;fillColor=none;top=0;left=0;bottom=0;right=0;overflow=hidden;rounded=1;labelBackgroundColor=#ffffff;fontSize=20;fontColor=#000000;" parent="zlDvcojfpH7KR3gQ91iM-35" vertex="1">
                    <mxGeometry x="75" width="74" height="40" as="geometry">
                        <mxRectangle width="74" height="40" as="alternateBounds"/>
                    </mxGeometry>
                </mxCell>
                <mxCell id="zlDvcojfpH7KR3gQ91iM-38" value="" style="shape=partialRectangle;html=1;whiteSpace=wrap;connectable=0;fillColor=none;top=0;left=0;bottom=0;right=0;overflow=hidden;rounded=1;labelBackgroundColor=#ffffff;fontSize=20;fontColor=#000000;" parent="zlDvcojfpH7KR3gQ91iM-35" vertex="1">
                    <mxGeometry x="149" width="75" height="40" as="geometry">
                        <mxRectangle width="75" height="40" as="alternateBounds"/>
                    </mxGeometry>
                </mxCell>
                <mxCell id="zlDvcojfpH7KR3gQ91iM-60" style="shape=partialRectangle;html=1;whiteSpace=wrap;connectable=0;fillColor=none;top=0;left=0;bottom=0;right=0;overflow=hidden;rounded=1;labelBackgroundColor=#ffffff;fontSize=20;fontColor=#000000;" parent="zlDvcojfpH7KR3gQ91iM-35" vertex="1">
                    <mxGeometry x="224" width="75" height="40" as="geometry">
                        <mxRectangle width="75" height="40" as="alternateBounds"/>
                    </mxGeometry>
                </mxCell>
                <mxCell id="zlDvcojfpH7KR3gQ91iM-63" style="shape=partialRectangle;html=1;whiteSpace=wrap;connectable=0;fillColor=none;top=0;left=0;bottom=0;right=0;overflow=hidden;rounded=1;labelBackgroundColor=#ffffff;fontSize=20;fontColor=#000000;" parent="zlDvcojfpH7KR3gQ91iM-35" vertex="1">
                    <mxGeometry x="299" width="149" height="40" as="geometry">
                        <mxRectangle width="149" height="40" as="alternateBounds"/>
                    </mxGeometry>
                </mxCell>
                <mxCell id="zlDvcojfpH7KR3gQ91iM-66" style="shape=partialRectangle;html=1;whiteSpace=wrap;connectable=0;fillColor=none;top=0;left=0;bottom=0;right=0;overflow=hidden;rounded=1;labelBackgroundColor=#ffffff;fontSize=20;fontColor=#000000;" parent="zlDvcojfpH7KR3gQ91iM-35" vertex="1">
                    <mxGeometry x="448" width="62" height="40" as="geometry">
                        <mxRectangle width="62" height="40" as="alternateBounds"/>
                    </mxGeometry>
                </mxCell>
                <mxCell id="zlDvcojfpH7KR3gQ91iM-39" value="" style="shape=tableRow;horizontal=0;startSize=0;swimlaneHead=0;swimlaneBody=0;top=0;left=0;bottom=0;right=0;collapsible=0;dropTarget=0;fillColor=none;points=[[0,0.5],[1,0.5]];portConstraint=eastwest;rounded=1;labelBackgroundColor=#ffffff;fontSize=20;fontColor=#000000;" parent="zlDvcojfpH7KR3gQ91iM-30" vertex="1">
                    <mxGeometry y="80" width="510" height="40" as="geometry"/>
                </mxCell>
                <mxCell id="zlDvcojfpH7KR3gQ91iM-40" value="" style="shape=partialRectangle;html=1;whiteSpace=wrap;connectable=0;fillColor=none;top=0;left=0;bottom=0;right=0;overflow=hidden;rounded=1;labelBackgroundColor=#ffffff;fontSize=20;fontColor=#000000;" parent="zlDvcojfpH7KR3gQ91iM-39" vertex="1">
                    <mxGeometry width="75" height="40" as="geometry">
                        <mxRectangle width="75" height="40" as="alternateBounds"/>
                    </mxGeometry>
                </mxCell>
                <mxCell id="zlDvcojfpH7KR3gQ91iM-41" value="" style="shape=partialRectangle;html=1;whiteSpace=wrap;connectable=0;fillColor=none;top=0;left=0;bottom=0;right=0;overflow=hidden;rounded=1;labelBackgroundColor=#ffffff;fontSize=20;fontColor=#000000;" parent="zlDvcojfpH7KR3gQ91iM-39" vertex="1">
                    <mxGeometry x="75" width="74" height="40" as="geometry">
                        <mxRectangle width="74" height="40" as="alternateBounds"/>
                    </mxGeometry>
                </mxCell>
                <mxCell id="zlDvcojfpH7KR3gQ91iM-42" value="" style="shape=partialRectangle;html=1;whiteSpace=wrap;connectable=0;fillColor=none;top=0;left=0;bottom=0;right=0;overflow=hidden;pointerEvents=1;rounded=1;labelBackgroundColor=#ffffff;fontSize=20;fontColor=#000000;" parent="zlDvcojfpH7KR3gQ91iM-39" vertex="1">
                    <mxGeometry x="149" width="75" height="40" as="geometry">
                        <mxRectangle width="75" height="40" as="alternateBounds"/>
                    </mxGeometry>
                </mxCell>
                <mxCell id="zlDvcojfpH7KR3gQ91iM-61" style="shape=partialRectangle;html=1;whiteSpace=wrap;connectable=0;fillColor=none;top=0;left=0;bottom=0;right=0;overflow=hidden;pointerEvents=1;rounded=1;labelBackgroundColor=#ffffff;fontSize=20;fontColor=#000000;" parent="zlDvcojfpH7KR3gQ91iM-39" vertex="1">
                    <mxGeometry x="224" width="75" height="40" as="geometry">
                        <mxRectangle width="75" height="40" as="alternateBounds"/>
                    </mxGeometry>
                </mxCell>
                <mxCell id="zlDvcojfpH7KR3gQ91iM-64" style="shape=partialRectangle;html=1;whiteSpace=wrap;connectable=0;fillColor=none;top=0;left=0;bottom=0;right=0;overflow=hidden;pointerEvents=1;rounded=1;labelBackgroundColor=#ffffff;fontSize=20;fontColor=#000000;" parent="zlDvcojfpH7KR3gQ91iM-39" vertex="1">
                    <mxGeometry x="299" width="149" height="40" as="geometry">
                        <mxRectangle width="149" height="40" as="alternateBounds"/>
                    </mxGeometry>
                </mxCell>
                <mxCell id="zlDvcojfpH7KR3gQ91iM-67" style="shape=partialRectangle;html=1;whiteSpace=wrap;connectable=0;fillColor=none;top=0;left=0;bottom=0;right=0;overflow=hidden;pointerEvents=1;rounded=1;labelBackgroundColor=#ffffff;fontSize=20;fontColor=#000000;" parent="zlDvcojfpH7KR3gQ91iM-39" vertex="1">
                    <mxGeometry x="448" width="62" height="40" as="geometry">
                        <mxRectangle width="62" height="40" as="alternateBounds"/>
                    </mxGeometry>
                </mxCell>
                <mxCell id="zlDvcojfpH7KR3gQ91iM-68" style="shape=tableRow;horizontal=0;startSize=0;swimlaneHead=0;swimlaneBody=0;top=0;left=0;bottom=0;right=0;collapsible=0;dropTarget=0;fillColor=none;points=[[0,0.5],[1,0.5]];portConstraint=eastwest;rounded=1;labelBackgroundColor=#ffffff;fontSize=20;fontColor=#000000;" parent="zlDvcojfpH7KR3gQ91iM-30" vertex="1">
                    <mxGeometry y="120" width="510" height="40" as="geometry"/>
                </mxCell>
                <mxCell id="zlDvcojfpH7KR3gQ91iM-69" style="shape=partialRectangle;html=1;whiteSpace=wrap;connectable=0;fillColor=none;top=0;left=0;bottom=0;right=0;overflow=hidden;rounded=1;labelBackgroundColor=#ffffff;fontSize=20;fontColor=#000000;" parent="zlDvcojfpH7KR3gQ91iM-68" vertex="1">
                    <mxGeometry width="75" height="40" as="geometry">
                        <mxRectangle width="75" height="40" as="alternateBounds"/>
                    </mxGeometry>
                </mxCell>
                <mxCell id="zlDvcojfpH7KR3gQ91iM-70" style="shape=partialRectangle;html=1;whiteSpace=wrap;connectable=0;fillColor=none;top=0;left=0;bottom=0;right=0;overflow=hidden;rounded=1;labelBackgroundColor=#ffffff;fontSize=20;fontColor=#000000;" parent="zlDvcojfpH7KR3gQ91iM-68" vertex="1">
                    <mxGeometry x="75" width="74" height="40" as="geometry">
                        <mxRectangle width="74" height="40" as="alternateBounds"/>
                    </mxGeometry>
                </mxCell>
                <mxCell id="zlDvcojfpH7KR3gQ91iM-71" style="shape=partialRectangle;html=1;whiteSpace=wrap;connectable=0;fillColor=none;top=0;left=0;bottom=0;right=0;overflow=hidden;pointerEvents=1;rounded=1;labelBackgroundColor=#ffffff;fontSize=20;fontColor=#000000;" parent="zlDvcojfpH7KR3gQ91iM-68" vertex="1">
                    <mxGeometry x="149" width="75" height="40" as="geometry">
                        <mxRectangle width="75" height="40" as="alternateBounds"/>
                    </mxGeometry>
                </mxCell>
                <mxCell id="zlDvcojfpH7KR3gQ91iM-72" style="shape=partialRectangle;html=1;whiteSpace=wrap;connectable=0;fillColor=none;top=0;left=0;bottom=0;right=0;overflow=hidden;pointerEvents=1;rounded=1;labelBackgroundColor=#ffffff;fontSize=20;fontColor=#000000;" parent="zlDvcojfpH7KR3gQ91iM-68" vertex="1">
                    <mxGeometry x="224" width="75" height="40" as="geometry">
                        <mxRectangle width="75" height="40" as="alternateBounds"/>
                    </mxGeometry>
                </mxCell>
                <mxCell id="zlDvcojfpH7KR3gQ91iM-73" style="shape=partialRectangle;html=1;whiteSpace=wrap;connectable=0;fillColor=none;top=0;left=0;bottom=0;right=0;overflow=hidden;pointerEvents=1;rounded=1;labelBackgroundColor=#ffffff;fontSize=20;fontColor=#000000;" parent="zlDvcojfpH7KR3gQ91iM-68" vertex="1">
                    <mxGeometry x="299" width="149" height="40" as="geometry">
                        <mxRectangle width="149" height="40" as="alternateBounds"/>
                    </mxGeometry>
                </mxCell>
                <mxCell id="zlDvcojfpH7KR3gQ91iM-74" style="shape=partialRectangle;html=1;whiteSpace=wrap;connectable=0;fillColor=none;top=0;left=0;bottom=0;right=0;overflow=hidden;pointerEvents=1;rounded=1;labelBackgroundColor=#ffffff;fontSize=20;fontColor=#000000;" parent="zlDvcojfpH7KR3gQ91iM-68" vertex="1">
                    <mxGeometry x="448" width="62" height="40" as="geometry">
                        <mxRectangle width="62" height="40" as="alternateBounds"/>
                    </mxGeometry>
                </mxCell>
                <mxCell id="zlDvcojfpH7KR3gQ91iM-75" style="shape=tableRow;horizontal=0;startSize=0;swimlaneHead=0;swimlaneBody=0;top=0;left=0;bottom=0;right=0;collapsible=0;dropTarget=0;fillColor=none;points=[[0,0.5],[1,0.5]];portConstraint=eastwest;rounded=1;labelBackgroundColor=#ffffff;fontSize=20;fontColor=#000000;" parent="zlDvcojfpH7KR3gQ91iM-30" vertex="1">
                    <mxGeometry y="160" width="510" height="40" as="geometry"/>
                </mxCell>
                <mxCell id="zlDvcojfpH7KR3gQ91iM-76" style="shape=partialRectangle;html=1;whiteSpace=wrap;connectable=0;fillColor=none;top=0;left=0;bottom=0;right=0;overflow=hidden;rounded=1;labelBackgroundColor=#ffffff;fontSize=20;fontColor=#000000;" parent="zlDvcojfpH7KR3gQ91iM-75" vertex="1">
                    <mxGeometry width="75" height="40" as="geometry">
                        <mxRectangle width="75" height="40" as="alternateBounds"/>
                    </mxGeometry>
                </mxCell>
                <mxCell id="zlDvcojfpH7KR3gQ91iM-77" style="shape=partialRectangle;html=1;whiteSpace=wrap;connectable=0;fillColor=none;top=0;left=0;bottom=0;right=0;overflow=hidden;rounded=1;labelBackgroundColor=#ffffff;fontSize=20;fontColor=#000000;" parent="zlDvcojfpH7KR3gQ91iM-75" vertex="1">
                    <mxGeometry x="75" width="74" height="40" as="geometry">
                        <mxRectangle width="74" height="40" as="alternateBounds"/>
                    </mxGeometry>
                </mxCell>
                <mxCell id="zlDvcojfpH7KR3gQ91iM-78" style="shape=partialRectangle;html=1;whiteSpace=wrap;connectable=0;fillColor=none;top=0;left=0;bottom=0;right=0;overflow=hidden;pointerEvents=1;rounded=1;labelBackgroundColor=#ffffff;fontSize=20;fontColor=#000000;" parent="zlDvcojfpH7KR3gQ91iM-75" vertex="1">
                    <mxGeometry x="149" width="75" height="40" as="geometry">
                        <mxRectangle width="75" height="40" as="alternateBounds"/>
                    </mxGeometry>
                </mxCell>
                <mxCell id="zlDvcojfpH7KR3gQ91iM-79" style="shape=partialRectangle;html=1;whiteSpace=wrap;connectable=0;fillColor=none;top=0;left=0;bottom=0;right=0;overflow=hidden;pointerEvents=1;rounded=1;labelBackgroundColor=#ffffff;fontSize=20;fontColor=#000000;" parent="zlDvcojfpH7KR3gQ91iM-75" vertex="1">
                    <mxGeometry x="224" width="75" height="40" as="geometry">
                        <mxRectangle width="75" height="40" as="alternateBounds"/>
                    </mxGeometry>
                </mxCell>
                <mxCell id="zlDvcojfpH7KR3gQ91iM-80" style="shape=partialRectangle;html=1;whiteSpace=wrap;connectable=0;fillColor=none;top=0;left=0;bottom=0;right=0;overflow=hidden;pointerEvents=1;rounded=1;labelBackgroundColor=#ffffff;fontSize=20;fontColor=#000000;" parent="zlDvcojfpH7KR3gQ91iM-75" vertex="1">
                    <mxGeometry x="299" width="149" height="40" as="geometry">
                        <mxRectangle width="149" height="40" as="alternateBounds"/>
                    </mxGeometry>
                </mxCell>
                <mxCell id="zlDvcojfpH7KR3gQ91iM-81" style="shape=partialRectangle;html=1;whiteSpace=wrap;connectable=0;fillColor=none;top=0;left=0;bottom=0;right=0;overflow=hidden;pointerEvents=1;rounded=1;labelBackgroundColor=#ffffff;fontSize=20;fontColor=#000000;" parent="zlDvcojfpH7KR3gQ91iM-75" vertex="1">
                    <mxGeometry x="448" width="62" height="40" as="geometry">
                        <mxRectangle width="62" height="40" as="alternateBounds"/>
                    </mxGeometry>
                </mxCell>
                <mxCell id="zlDvcojfpH7KR3gQ91iM-82" style="shape=tableRow;horizontal=0;startSize=0;swimlaneHead=0;swimlaneBody=0;top=0;left=0;bottom=0;right=0;collapsible=0;dropTarget=0;fillColor=none;points=[[0,0.5],[1,0.5]];portConstraint=eastwest;rounded=1;labelBackgroundColor=#ffffff;fontSize=20;fontColor=#000000;" parent="zlDvcojfpH7KR3gQ91iM-30" vertex="1">
                    <mxGeometry y="200" width="510" height="40" as="geometry"/>
                </mxCell>
                <mxCell id="zlDvcojfpH7KR3gQ91iM-83" style="shape=partialRectangle;html=1;whiteSpace=wrap;connectable=0;fillColor=none;top=0;left=0;bottom=0;right=0;overflow=hidden;rounded=1;labelBackgroundColor=#ffffff;fontSize=20;fontColor=#000000;" parent="zlDvcojfpH7KR3gQ91iM-82" vertex="1">
                    <mxGeometry width="75" height="40" as="geometry">
                        <mxRectangle width="75" height="40" as="alternateBounds"/>
                    </mxGeometry>
                </mxCell>
                <mxCell id="zlDvcojfpH7KR3gQ91iM-84" style="shape=partialRectangle;html=1;whiteSpace=wrap;connectable=0;fillColor=none;top=0;left=0;bottom=0;right=0;overflow=hidden;rounded=1;labelBackgroundColor=#ffffff;fontSize=20;fontColor=#000000;" parent="zlDvcojfpH7KR3gQ91iM-82" vertex="1">
                    <mxGeometry x="75" width="74" height="40" as="geometry">
                        <mxRectangle width="74" height="40" as="alternateBounds"/>
                    </mxGeometry>
                </mxCell>
                <mxCell id="zlDvcojfpH7KR3gQ91iM-85" style="shape=partialRectangle;html=1;whiteSpace=wrap;connectable=0;fillColor=none;top=0;left=0;bottom=0;right=0;overflow=hidden;pointerEvents=1;rounded=1;labelBackgroundColor=#ffffff;fontSize=20;fontColor=#000000;" parent="zlDvcojfpH7KR3gQ91iM-82" vertex="1">
                    <mxGeometry x="149" width="75" height="40" as="geometry">
                        <mxRectangle width="75" height="40" as="alternateBounds"/>
                    </mxGeometry>
                </mxCell>
                <mxCell id="zlDvcojfpH7KR3gQ91iM-86" style="shape=partialRectangle;html=1;whiteSpace=wrap;connectable=0;fillColor=none;top=0;left=0;bottom=0;right=0;overflow=hidden;pointerEvents=1;rounded=1;labelBackgroundColor=#ffffff;fontSize=20;fontColor=#000000;" parent="zlDvcojfpH7KR3gQ91iM-82" vertex="1">
                    <mxGeometry x="224" width="75" height="40" as="geometry">
                        <mxRectangle width="75" height="40" as="alternateBounds"/>
                    </mxGeometry>
                </mxCell>
                <mxCell id="zlDvcojfpH7KR3gQ91iM-87" style="shape=partialRectangle;html=1;whiteSpace=wrap;connectable=0;fillColor=none;top=0;left=0;bottom=0;right=0;overflow=hidden;pointerEvents=1;rounded=1;labelBackgroundColor=#ffffff;fontSize=20;fontColor=#000000;" parent="zlDvcojfpH7KR3gQ91iM-82" vertex="1">
                    <mxGeometry x="299" width="149" height="40" as="geometry">
                        <mxRectangle width="149" height="40" as="alternateBounds"/>
                    </mxGeometry>
                </mxCell>
                <mxCell id="zlDvcojfpH7KR3gQ91iM-88" style="shape=partialRectangle;html=1;whiteSpace=wrap;connectable=0;fillColor=none;top=0;left=0;bottom=0;right=0;overflow=hidden;pointerEvents=1;rounded=1;labelBackgroundColor=#ffffff;fontSize=20;fontColor=#000000;" parent="zlDvcojfpH7KR3gQ91iM-82" vertex="1">
                    <mxGeometry x="448" width="62" height="40" as="geometry">
                        <mxRectangle width="62" height="40" as="alternateBounds"/>
                    </mxGeometry>
                </mxCell>
                <mxCell id="zlDvcojfpH7KR3gQ91iM-89" value="" style="rounded=1;whiteSpace=wrap;html=1;labelBackgroundColor=#ffffff;fontSize=13;fontColor=#000000;" parent="zumGGa5CJThketpORV2P-1" vertex="1">
                    <mxGeometry x="700" y="195" width="70" height="20" as="geometry"/>
                </mxCell>
                <mxCell id="zlDvcojfpH7KR3gQ91iM-90" value="&lt;font style=&quot;font-size: 12px&quot;&gt;Pencarian&lt;/font&gt;" style="text;html=1;strokeColor=none;fillColor=none;align=center;verticalAlign=middle;whiteSpace=wrap;rounded=0;labelBackgroundColor=#ffffff;fontSize=13;fontColor=#000000;" parent="zumGGa5CJThketpORV2P-1" vertex="1">
                    <mxGeometry x="620" y="190" width="60" height="30" as="geometry"/>
                </mxCell>
                <mxCell id="zlDvcojfpH7KR3gQ91iM-95" value="10" style="rounded=1;whiteSpace=wrap;html=1;labelBackgroundColor=#ffffff;fontSize=13;fontColor=#000000;" parent="zumGGa5CJThketpORV2P-1" vertex="1">
                    <mxGeometry x="320" y="195" width="20" height="20" as="geometry"/>
                </mxCell>
                <mxCell id="zlDvcojfpH7KR3gQ91iM-96" value="&lt;font style=&quot;font-size: 12px&quot;&gt;Tampilkan&lt;/font&gt;" style="text;html=1;strokeColor=none;fillColor=none;align=left;verticalAlign=middle;whiteSpace=wrap;rounded=0;labelBackgroundColor=#ffffff;fontSize=13;fontColor=#000000;" parent="zumGGa5CJThketpORV2P-1" vertex="1">
                    <mxGeometry x="260" y="190" width="60" height="30" as="geometry"/>
                </mxCell>
                <mxCell id="zlDvcojfpH7KR3gQ91iM-97" value="&lt;font style=&quot;font-size: 12px&quot;&gt;data&lt;/font&gt;" style="text;html=1;strokeColor=none;fillColor=none;align=left;verticalAlign=middle;whiteSpace=wrap;rounded=0;labelBackgroundColor=#ffffff;fontSize=13;fontColor=#000000;" parent="zumGGa5CJThketpORV2P-1" vertex="1">
                    <mxGeometry x="350" y="190" width="30" height="30" as="geometry"/>
                </mxCell>
                <mxCell id="dO7PGRC_kLRTmVkMXsHO-0" value="Tambah" style="rounded=1;whiteSpace=wrap;html=1;labelBackgroundColor=#ffffff;fontSize=15;fontColor=#000000;" parent="zumGGa5CJThketpORV2P-1" vertex="1">
                    <mxGeometry x="260" y="150" width="70" height="30" as="geometry"/>
                </mxCell>
            </root>
        </mxGraphModel>
    </diagram>
    <diagram id="KzrnJEylVLXB8ev3T4F3" name="Form Arsip">
        <mxGraphModel dx="1103" dy="582" grid="1" gridSize="10" guides="1" tooltips="1" connect="1" arrows="1" fold="1" page="1" pageScale="1" pageWidth="850" pageHeight="1100" math="0" shadow="0">
            <root>
                <mxCell id="KsKu6-LVYp1mvfq29vJL-0"/>
                <mxCell id="KsKu6-LVYp1mvfq29vJL-1" parent="KsKu6-LVYp1mvfq29vJL-0"/>
                <mxCell id="rzaYqVjGOE6LrB8ARh4B-0" value="" style="rounded=0;whiteSpace=wrap;html=1;" vertex="1" parent="KsKu6-LVYp1mvfq29vJL-1">
                    <mxGeometry x="40" y="40" width="760" height="440" as="geometry"/>
                </mxCell>
                <mxCell id="rzaYqVjGOE6LrB8ARh4B-1" value="SIM Arsip DLH Kota Madiun" style="rounded=0;whiteSpace=wrap;html=1;fontSize=16;align=left;" vertex="1" parent="KsKu6-LVYp1mvfq29vJL-1">
                    <mxGeometry x="40" y="40" width="760" height="60" as="geometry"/>
                </mxCell>
                <mxCell id="rzaYqVjGOE6LrB8ARh4B-2" value="Keluar" style="rounded=0;whiteSpace=wrap;html=1;labelBackgroundColor=#ffffff;fontSize=16;fontColor=#000000;" vertex="1" parent="KsKu6-LVYp1mvfq29vJL-1">
                    <mxGeometry x="720" y="40" width="80" height="60" as="geometry"/>
                </mxCell>
                <mxCell id="rzaYqVjGOE6LrB8ARh4B-3" value="" style="rounded=0;whiteSpace=wrap;html=1;labelBackgroundColor=#ffffff;fontSize=16;fontColor=#000000;" vertex="1" parent="KsKu6-LVYp1mvfq29vJL-1">
                    <mxGeometry x="40" y="100" width="210" height="380" as="geometry"/>
                </mxCell>
                <mxCell id="rzaYqVjGOE6LrB8ARh4B-4" value="Data Arsip" style="text;html=1;strokeColor=none;fillColor=none;align=left;verticalAlign=middle;whiteSpace=wrap;rounded=0;labelBackgroundColor=#ffffff;fontSize=16;fontColor=#000000;" vertex="1" parent="KsKu6-LVYp1mvfq29vJL-1">
                    <mxGeometry x="50" y="110" width="190" height="30" as="geometry"/>
                </mxCell>
                <mxCell id="rzaYqVjGOE6LrB8ARh4B-5" value="&lt;font style=&quot;font-size: 11px&quot;&gt;Administrator&lt;/font&gt;" style="text;html=1;strokeColor=none;fillColor=none;align=left;verticalAlign=middle;whiteSpace=wrap;rounded=0;labelBackgroundColor=#ffffff;fontSize=16;fontColor=#000000;" vertex="1" parent="KsKu6-LVYp1mvfq29vJL-1">
                    <mxGeometry x="50" y="140" width="70" height="20" as="geometry"/>
                </mxCell>
                <mxCell id="rzaYqVjGOE6LrB8ARh4B-6" value="Arsip Bidang" style="text;html=1;strokeColor=none;fillColor=none;align=left;verticalAlign=middle;whiteSpace=wrap;rounded=0;labelBackgroundColor=#ffffff;fontSize=16;fontColor=#000000;" vertex="1" parent="KsKu6-LVYp1mvfq29vJL-1">
                    <mxGeometry x="50" y="160" width="190" height="30" as="geometry"/>
                </mxCell>
                <mxCell id="rzaYqVjGOE6LrB8ARh4B-7" value="" style="rounded=0;whiteSpace=wrap;html=1;labelBackgroundColor=#ffffff;fontSize=11;fontColor=#000000;" vertex="1" parent="KsKu6-LVYp1mvfq29vJL-1">
                    <mxGeometry x="50" y="190" width="190" height="80" as="geometry"/>
                </mxCell>
                <mxCell id="rzaYqVjGOE6LrB8ARh4B-8" value="&lt;font style=&quot;font-size: 14px&quot;&gt;Bidang 1&lt;/font&gt;" style="rounded=0;whiteSpace=wrap;html=1;labelBackgroundColor=#ffffff;fontSize=11;fontColor=#000000;" vertex="1" parent="KsKu6-LVYp1mvfq29vJL-1">
                    <mxGeometry x="50" y="190" width="190" height="40" as="geometry"/>
                </mxCell>
                <mxCell id="rzaYqVjGOE6LrB8ARh4B-9" value="&lt;font style=&quot;font-size: 14px&quot;&gt;Bidang 2&lt;/font&gt;" style="rounded=0;whiteSpace=wrap;html=1;labelBackgroundColor=#ffffff;fontSize=11;fontColor=#000000;" vertex="1" parent="KsKu6-LVYp1mvfq29vJL-1">
                    <mxGeometry x="50" y="230" width="190" height="40" as="geometry"/>
                </mxCell>
                <mxCell id="rzaYqVjGOE6LrB8ARh4B-10" value="Kategori" style="text;html=1;strokeColor=none;fillColor=none;align=left;verticalAlign=middle;whiteSpace=wrap;rounded=0;labelBackgroundColor=#ffffff;fontSize=16;fontColor=#000000;" vertex="1" parent="KsKu6-LVYp1mvfq29vJL-1">
                    <mxGeometry x="50" y="280" width="190" height="30" as="geometry"/>
                </mxCell>
                <mxCell id="rzaYqVjGOE6LrB8ARh4B-11" value="Bidang" style="text;html=1;strokeColor=none;fillColor=none;align=left;verticalAlign=middle;whiteSpace=wrap;rounded=0;labelBackgroundColor=#ffffff;fontSize=16;fontColor=#000000;" vertex="1" parent="KsKu6-LVYp1mvfq29vJL-1">
                    <mxGeometry x="50" y="310" width="190" height="30" as="geometry"/>
                </mxCell>
                <mxCell id="rzaYqVjGOE6LrB8ARh4B-12" value="Pengguna" style="text;html=1;strokeColor=none;fillColor=none;align=left;verticalAlign=middle;whiteSpace=wrap;rounded=0;labelBackgroundColor=#ffffff;fontSize=16;fontColor=#000000;" vertex="1" parent="KsKu6-LVYp1mvfq29vJL-1">
                    <mxGeometry x="50" y="340" width="190" height="30" as="geometry"/>
                </mxCell>
                <mxCell id="rzaYqVjGOE6LrB8ARh4B-13" value="&lt;font style=&quot;font-size: 11px&quot;&gt;Sistem&lt;/font&gt;" style="text;html=1;strokeColor=none;fillColor=none;align=left;verticalAlign=middle;whiteSpace=wrap;rounded=0;labelBackgroundColor=#ffffff;fontSize=16;fontColor=#000000;" vertex="1" parent="KsKu6-LVYp1mvfq29vJL-1">
                    <mxGeometry x="50" y="370" width="70" height="20" as="geometry"/>
                </mxCell>
                <mxCell id="rzaYqVjGOE6LrB8ARh4B-14" value="Ganti Password" style="text;html=1;strokeColor=none;fillColor=none;align=left;verticalAlign=middle;whiteSpace=wrap;rounded=0;labelBackgroundColor=#ffffff;fontSize=16;fontColor=#000000;" vertex="1" parent="KsKu6-LVYp1mvfq29vJL-1">
                    <mxGeometry x="50" y="390" width="190" height="30" as="geometry"/>
                </mxCell>
                <mxCell id="rzaYqVjGOE6LrB8ARh4B-15" value="Tambah Dokumen Baru" style="text;html=1;strokeColor=none;fillColor=none;align=left;verticalAlign=middle;whiteSpace=wrap;rounded=0;labelBackgroundColor=#ffffff;fontSize=20;fontColor=#000000;fontStyle=0" vertex="1" parent="KsKu6-LVYp1mvfq29vJL-1">
                    <mxGeometry x="260" y="110" width="360" height="30" as="geometry"/>
                </mxCell>
                <mxCell id="rzaYqVjGOE6LrB8ARh4B-65" value="" style="edgeStyle=orthogonalEdgeStyle;rounded=0;orthogonalLoop=1;jettySize=auto;html=1;fontSize=12;fontColor=#000000;" edge="1" parent="KsKu6-LVYp1mvfq29vJL-1" source="rzaYqVjGOE6LrB8ARh4B-61">
                    <mxGeometry relative="1" as="geometry">
                        <mxPoint x="300" y="170" as="targetPoint"/>
                    </mxGeometry>
                </mxCell>
                <mxCell id="rzaYqVjGOE6LrB8ARh4B-66" value="Nama Dokumen" style="text;html=1;strokeColor=none;fillColor=none;align=left;verticalAlign=middle;whiteSpace=wrap;rounded=0;labelBackgroundColor=#ffffff;fontSize=13;fontColor=#000000;" vertex="1" parent="KsKu6-LVYp1mvfq29vJL-1">
                    <mxGeometry x="270" y="170" width="100" height="30" as="geometry"/>
                </mxCell>
                <mxCell id="rzaYqVjGOE6LrB8ARh4B-67" value="" style="rounded=1;whiteSpace=wrap;html=1;labelBackgroundColor=#ffffff;fontSize=12;fontColor=#000000;" vertex="1" parent="KsKu6-LVYp1mvfq29vJL-1">
                    <mxGeometry x="270" y="200" width="240" height="20" as="geometry"/>
                </mxCell>
                <mxCell id="rzaYqVjGOE6LrB8ARh4B-68" value="Kategori" style="text;html=1;strokeColor=none;fillColor=none;align=left;verticalAlign=middle;whiteSpace=wrap;rounded=0;labelBackgroundColor=#ffffff;fontSize=13;fontColor=#000000;" vertex="1" parent="KsKu6-LVYp1mvfq29vJL-1">
                    <mxGeometry x="270" y="225" width="100" height="30" as="geometry"/>
                </mxCell>
                <mxCell id="rzaYqVjGOE6LrB8ARh4B-69" value="" style="rounded=1;whiteSpace=wrap;html=1;labelBackgroundColor=#ffffff;fontSize=12;fontColor=#000000;" vertex="1" parent="KsKu6-LVYp1mvfq29vJL-1">
                    <mxGeometry x="270" y="255" width="240" height="20" as="geometry"/>
                </mxCell>
                <mxCell id="rzaYqVjGOE6LrB8ARh4B-70" value="Bidang" style="text;html=1;strokeColor=none;fillColor=none;align=left;verticalAlign=middle;whiteSpace=wrap;rounded=0;labelBackgroundColor=#ffffff;fontSize=13;fontColor=#000000;" vertex="1" parent="KsKu6-LVYp1mvfq29vJL-1">
                    <mxGeometry x="270" y="280" width="100" height="30" as="geometry"/>
                </mxCell>
                <mxCell id="rzaYqVjGOE6LrB8ARh4B-71" value="" style="rounded=1;whiteSpace=wrap;html=1;labelBackgroundColor=#ffffff;fontSize=12;fontColor=#000000;" vertex="1" parent="KsKu6-LVYp1mvfq29vJL-1">
                    <mxGeometry x="270" y="310" width="240" height="20" as="geometry"/>
                </mxCell>
                <mxCell id="rzaYqVjGOE6LrB8ARh4B-72" value="Dokumen" style="text;html=1;strokeColor=none;fillColor=none;align=left;verticalAlign=middle;whiteSpace=wrap;rounded=0;labelBackgroundColor=#ffffff;fontSize=13;fontColor=#000000;" vertex="1" parent="KsKu6-LVYp1mvfq29vJL-1">
                    <mxGeometry x="270" y="340" width="100" height="30" as="geometry"/>
                </mxCell>
                <mxCell id="rzaYqVjGOE6LrB8ARh4B-73" value="" style="rounded=1;whiteSpace=wrap;html=1;labelBackgroundColor=#ffffff;fontSize=12;fontColor=#000000;" vertex="1" parent="KsKu6-LVYp1mvfq29vJL-1">
                    <mxGeometry x="270" y="370" width="240" height="20" as="geometry"/>
                </mxCell>
                <mxCell id="rzaYqVjGOE6LrB8ARh4B-74" value="Kembali" style="rounded=1;whiteSpace=wrap;html=1;labelBackgroundColor=#ffffff;fontSize=12;fontColor=#000000;" vertex="1" parent="KsKu6-LVYp1mvfq29vJL-1">
                    <mxGeometry x="270" y="410" width="50" height="20" as="geometry"/>
                </mxCell>
                <mxCell id="rzaYqVjGOE6LrB8ARh4B-75" value="Simpan" style="rounded=1;whiteSpace=wrap;html=1;labelBackgroundColor=#ffffff;fontSize=12;fontColor=#000000;" vertex="1" parent="KsKu6-LVYp1mvfq29vJL-1">
                    <mxGeometry x="330" y="410" width="50" height="20" as="geometry"/>
                </mxCell>
            </root>
        </mxGraphModel>
    </diagram>
    <diagram id="yTF0vresb3AfN3aQXPW6" name="Detail Arsip">
        <mxGraphModel dx="983" dy="771" grid="1" gridSize="10" guides="1" tooltips="1" connect="1" arrows="1" fold="1" page="1" pageScale="1" pageWidth="850" pageHeight="1100" math="0" shadow="0">
            <root>
                <mxCell id="Qr_665VLeWdf8SZ6xcZH-0"/>
                <mxCell id="Qr_665VLeWdf8SZ6xcZH-1" parent="Qr_665VLeWdf8SZ6xcZH-0"/>
                <mxCell id="Qr_665VLeWdf8SZ6xcZH-2" value="" style="rounded=0;whiteSpace=wrap;html=1;" parent="Qr_665VLeWdf8SZ6xcZH-1" vertex="1">
                    <mxGeometry x="40" y="40" width="760" height="440" as="geometry"/>
                </mxCell>
                <mxCell id="Qr_665VLeWdf8SZ6xcZH-3" value="SIM Arsip DLH Kota Madiun" style="rounded=0;whiteSpace=wrap;html=1;fontSize=16;align=left;" parent="Qr_665VLeWdf8SZ6xcZH-1" vertex="1">
                    <mxGeometry x="40" y="40" width="760" height="60" as="geometry"/>
                </mxCell>
                <mxCell id="Qr_665VLeWdf8SZ6xcZH-4" value="Keluar" style="rounded=0;whiteSpace=wrap;html=1;labelBackgroundColor=#ffffff;fontSize=16;fontColor=#000000;" parent="Qr_665VLeWdf8SZ6xcZH-1" vertex="1">
                    <mxGeometry x="720" y="40" width="80" height="60" as="geometry"/>
                </mxCell>
                <mxCell id="Qr_665VLeWdf8SZ6xcZH-5" value="" style="rounded=0;whiteSpace=wrap;html=1;labelBackgroundColor=#ffffff;fontSize=16;fontColor=#000000;" parent="Qr_665VLeWdf8SZ6xcZH-1" vertex="1">
                    <mxGeometry x="40" y="100" width="210" height="380" as="geometry"/>
                </mxCell>
                <mxCell id="Qr_665VLeWdf8SZ6xcZH-6" value="Data Arsip" style="text;html=1;strokeColor=none;fillColor=none;align=left;verticalAlign=middle;whiteSpace=wrap;rounded=0;labelBackgroundColor=#ffffff;fontSize=16;fontColor=#000000;" parent="Qr_665VLeWdf8SZ6xcZH-1" vertex="1">
                    <mxGeometry x="50" y="110" width="190" height="30" as="geometry"/>
                </mxCell>
                <mxCell id="Qr_665VLeWdf8SZ6xcZH-7" value="&lt;font style=&quot;font-size: 11px&quot;&gt;Administrator&lt;/font&gt;" style="text;html=1;strokeColor=none;fillColor=none;align=left;verticalAlign=middle;whiteSpace=wrap;rounded=0;labelBackgroundColor=#ffffff;fontSize=16;fontColor=#000000;" parent="Qr_665VLeWdf8SZ6xcZH-1" vertex="1">
                    <mxGeometry x="50" y="140" width="70" height="20" as="geometry"/>
                </mxCell>
                <mxCell id="Qr_665VLeWdf8SZ6xcZH-8" value="Arsip Bidang" style="text;html=1;strokeColor=none;fillColor=none;align=left;verticalAlign=middle;whiteSpace=wrap;rounded=0;labelBackgroundColor=#ffffff;fontSize=16;fontColor=#000000;" parent="Qr_665VLeWdf8SZ6xcZH-1" vertex="1">
                    <mxGeometry x="50" y="160" width="190" height="30" as="geometry"/>
                </mxCell>
                <mxCell id="Qr_665VLeWdf8SZ6xcZH-9" value="" style="rounded=0;whiteSpace=wrap;html=1;labelBackgroundColor=#ffffff;fontSize=11;fontColor=#000000;" parent="Qr_665VLeWdf8SZ6xcZH-1" vertex="1">
                    <mxGeometry x="50" y="190" width="190" height="80" as="geometry"/>
                </mxCell>
                <mxCell id="Qr_665VLeWdf8SZ6xcZH-10" value="&lt;font style=&quot;font-size: 14px&quot;&gt;Bidang 1&lt;/font&gt;" style="rounded=0;whiteSpace=wrap;html=1;labelBackgroundColor=#ffffff;fontSize=11;fontColor=#000000;" parent="Qr_665VLeWdf8SZ6xcZH-1" vertex="1">
                    <mxGeometry x="50" y="190" width="190" height="40" as="geometry"/>
                </mxCell>
                <mxCell id="Qr_665VLeWdf8SZ6xcZH-11" value="&lt;font style=&quot;font-size: 14px&quot;&gt;Bidang 2&lt;/font&gt;" style="rounded=0;whiteSpace=wrap;html=1;labelBackgroundColor=#ffffff;fontSize=11;fontColor=#000000;" parent="Qr_665VLeWdf8SZ6xcZH-1" vertex="1">
                    <mxGeometry x="50" y="230" width="190" height="40" as="geometry"/>
                </mxCell>
                <mxCell id="Qr_665VLeWdf8SZ6xcZH-12" value="Kategori" style="text;html=1;strokeColor=none;fillColor=none;align=left;verticalAlign=middle;whiteSpace=wrap;rounded=0;labelBackgroundColor=#ffffff;fontSize=16;fontColor=#000000;" parent="Qr_665VLeWdf8SZ6xcZH-1" vertex="1">
                    <mxGeometry x="50" y="280" width="190" height="30" as="geometry"/>
                </mxCell>
                <mxCell id="Qr_665VLeWdf8SZ6xcZH-13" value="Bidang" style="text;html=1;strokeColor=none;fillColor=none;align=left;verticalAlign=middle;whiteSpace=wrap;rounded=0;labelBackgroundColor=#ffffff;fontSize=16;fontColor=#000000;" parent="Qr_665VLeWdf8SZ6xcZH-1" vertex="1">
                    <mxGeometry x="50" y="310" width="190" height="30" as="geometry"/>
                </mxCell>
                <mxCell id="Qr_665VLeWdf8SZ6xcZH-14" value="Pengguna" style="text;html=1;strokeColor=none;fillColor=none;align=left;verticalAlign=middle;whiteSpace=wrap;rounded=0;labelBackgroundColor=#ffffff;fontSize=16;fontColor=#000000;" parent="Qr_665VLeWdf8SZ6xcZH-1" vertex="1">
                    <mxGeometry x="50" y="340" width="190" height="30" as="geometry"/>
                </mxCell>
                <mxCell id="Qr_665VLeWdf8SZ6xcZH-15" value="&lt;font style=&quot;font-size: 11px&quot;&gt;Sistem&lt;/font&gt;" style="text;html=1;strokeColor=none;fillColor=none;align=left;verticalAlign=middle;whiteSpace=wrap;rounded=0;labelBackgroundColor=#ffffff;fontSize=16;fontColor=#000000;" parent="Qr_665VLeWdf8SZ6xcZH-1" vertex="1">
                    <mxGeometry x="50" y="370" width="70" height="20" as="geometry"/>
                </mxCell>
                <mxCell id="Qr_665VLeWdf8SZ6xcZH-16" value="Ganti Password" style="text;html=1;strokeColor=none;fillColor=none;align=left;verticalAlign=middle;whiteSpace=wrap;rounded=0;labelBackgroundColor=#ffffff;fontSize=16;fontColor=#000000;" parent="Qr_665VLeWdf8SZ6xcZH-1" vertex="1">
                    <mxGeometry x="50" y="390" width="190" height="30" as="geometry"/>
                </mxCell>
                <mxCell id="Qr_665VLeWdf8SZ6xcZH-17" value="Lihat Arsip" style="text;html=1;strokeColor=none;fillColor=none;align=left;verticalAlign=middle;whiteSpace=wrap;rounded=0;labelBackgroundColor=#ffffff;fontSize=20;fontColor=#000000;fontStyle=0" parent="Qr_665VLeWdf8SZ6xcZH-1" vertex="1">
                    <mxGeometry x="260" y="110" width="360" height="30" as="geometry"/>
                </mxCell>
                <mxCell id="Qr_665VLeWdf8SZ6xcZH-26" value="Kembali" style="rounded=1;whiteSpace=wrap;html=1;labelBackgroundColor=#ffffff;fontSize=12;fontColor=#000000;" parent="Qr_665VLeWdf8SZ6xcZH-1" vertex="1">
                    <mxGeometry x="270" y="240" width="70" height="30" as="geometry"/>
                </mxCell>
                <mxCell id="Qr_665VLeWdf8SZ6xcZH-27" value="Unduh" style="rounded=1;whiteSpace=wrap;html=1;labelBackgroundColor=#ffffff;fontSize=12;fontColor=#000000;" parent="Qr_665VLeWdf8SZ6xcZH-1" vertex="1">
                    <mxGeometry x="710" y="240" width="70" height="30" as="geometry"/>
                </mxCell>
                <mxCell id="Qr_665VLeWdf8SZ6xcZH-34" value="Nama Arsip" style="text;html=1;strokeColor=none;fillColor=none;align=center;verticalAlign=middle;whiteSpace=wrap;rounded=0;labelBackgroundColor=#ffffff;fontSize=19;fontColor=#000000;fontStyle=0" parent="Qr_665VLeWdf8SZ6xcZH-1" vertex="1">
                    <mxGeometry x="250" y="140" width="550" height="30" as="geometry"/>
                </mxCell>
                <mxCell id="Qr_665VLeWdf8SZ6xcZH-35" value="Kategori Arsip dan Bidang Arsip" style="text;html=1;strokeColor=none;fillColor=none;align=center;verticalAlign=middle;whiteSpace=wrap;rounded=0;labelBackgroundColor=#ffffff;fontSize=18;fontColor=#000000;fontStyle=0" parent="Qr_665VLeWdf8SZ6xcZH-1" vertex="1">
                    <mxGeometry x="250" y="170" width="550" height="30" as="geometry"/>
                </mxCell>
                <mxCell id="Qr_665VLeWdf8SZ6xcZH-36" value="&lt;font style=&quot;font-size: 15px&quot;&gt;Ditambahkan Pada : 6 Maret 2022&amp;nbsp; &amp;nbsp; &amp;nbsp; &amp;nbsp; &amp;nbsp; &amp;nbsp; &amp;nbsp; &amp;nbsp;Terakhir diubah : 2 Hari yang lalu&lt;/font&gt;" style="text;html=1;strokeColor=none;fillColor=none;align=center;verticalAlign=middle;whiteSpace=wrap;rounded=0;labelBackgroundColor=#ffffff;fontSize=17;fontColor=#000000;fontStyle=0" parent="Qr_665VLeWdf8SZ6xcZH-1" vertex="1">
                    <mxGeometry x="250" y="200" width="550" height="30" as="geometry"/>
                </mxCell>
                <mxCell id="Qr_665VLeWdf8SZ6xcZH-37" value="Dokumen" style="rounded=0;whiteSpace=wrap;html=1;labelBackgroundColor=#ffffff;fontSize=15;fontColor=#000000;" parent="Qr_665VLeWdf8SZ6xcZH-1" vertex="1">
                    <mxGeometry x="270" y="280" width="510" height="190" as="geometry"/>
                </mxCell>
            </root>
        </mxGraphModel>
    </diagram>
    <diagram id="lXwUooOhd7WyRinjNJ68" name="kategori">
        <mxGraphModel dx="1103" dy="582" grid="1" gridSize="10" guides="1" tooltips="1" connect="1" arrows="1" fold="1" page="1" pageScale="1" pageWidth="850" pageHeight="1100" math="0" shadow="0">
            <root>
                <mxCell id="PXf2iaB-KW3RzbGrRs00-0"/>
                <mxCell id="PXf2iaB-KW3RzbGrRs00-1" parent="PXf2iaB-KW3RzbGrRs00-0"/>
                <mxCell id="W48cUcT3M6QMjZgAQPPY-0" value="" style="rounded=0;whiteSpace=wrap;html=1;" vertex="1" parent="PXf2iaB-KW3RzbGrRs00-1">
                    <mxGeometry x="40" y="40" width="760" height="440" as="geometry"/>
                </mxCell>
                <mxCell id="W48cUcT3M6QMjZgAQPPY-1" value="SIM Arsip DLH Kota Madiun" style="rounded=0;whiteSpace=wrap;html=1;fontSize=16;align=left;" vertex="1" parent="PXf2iaB-KW3RzbGrRs00-1">
                    <mxGeometry x="40" y="40" width="760" height="60" as="geometry"/>
                </mxCell>
                <mxCell id="W48cUcT3M6QMjZgAQPPY-2" value="Keluar" style="rounded=0;whiteSpace=wrap;html=1;labelBackgroundColor=#ffffff;fontSize=16;fontColor=#000000;" vertex="1" parent="PXf2iaB-KW3RzbGrRs00-1">
                    <mxGeometry x="720" y="40" width="80" height="60" as="geometry"/>
                </mxCell>
                <mxCell id="W48cUcT3M6QMjZgAQPPY-3" value="" style="rounded=0;whiteSpace=wrap;html=1;labelBackgroundColor=#ffffff;fontSize=16;fontColor=#000000;" vertex="1" parent="PXf2iaB-KW3RzbGrRs00-1">
                    <mxGeometry x="40" y="100" width="210" height="380" as="geometry"/>
                </mxCell>
                <mxCell id="W48cUcT3M6QMjZgAQPPY-4" value="Data Arsip" style="text;html=1;strokeColor=none;fillColor=none;align=left;verticalAlign=middle;whiteSpace=wrap;rounded=0;labelBackgroundColor=#ffffff;fontSize=16;fontColor=#000000;" vertex="1" parent="PXf2iaB-KW3RzbGrRs00-1">
                    <mxGeometry x="50" y="110" width="190" height="30" as="geometry"/>
                </mxCell>
                <mxCell id="W48cUcT3M6QMjZgAQPPY-5" value="&lt;font style=&quot;font-size: 11px&quot;&gt;Administrator&lt;/font&gt;" style="text;html=1;strokeColor=none;fillColor=none;align=left;verticalAlign=middle;whiteSpace=wrap;rounded=0;labelBackgroundColor=#ffffff;fontSize=16;fontColor=#000000;" vertex="1" parent="PXf2iaB-KW3RzbGrRs00-1">
                    <mxGeometry x="50" y="140" width="70" height="20" as="geometry"/>
                </mxCell>
                <mxCell id="W48cUcT3M6QMjZgAQPPY-6" value="Arsip Bidang" style="text;html=1;strokeColor=none;fillColor=none;align=left;verticalAlign=middle;whiteSpace=wrap;rounded=0;labelBackgroundColor=#ffffff;fontSize=16;fontColor=#000000;" vertex="1" parent="PXf2iaB-KW3RzbGrRs00-1">
                    <mxGeometry x="50" y="160" width="190" height="30" as="geometry"/>
                </mxCell>
                <mxCell id="W48cUcT3M6QMjZgAQPPY-7" value="" style="rounded=0;whiteSpace=wrap;html=1;labelBackgroundColor=#ffffff;fontSize=11;fontColor=#000000;" vertex="1" parent="PXf2iaB-KW3RzbGrRs00-1">
                    <mxGeometry x="50" y="190" width="190" height="80" as="geometry"/>
                </mxCell>
                <mxCell id="W48cUcT3M6QMjZgAQPPY-8" value="&lt;font style=&quot;font-size: 14px&quot;&gt;Bidang 1&lt;/font&gt;" style="rounded=0;whiteSpace=wrap;html=1;labelBackgroundColor=#ffffff;fontSize=11;fontColor=#000000;" vertex="1" parent="PXf2iaB-KW3RzbGrRs00-1">
                    <mxGeometry x="50" y="190" width="190" height="40" as="geometry"/>
                </mxCell>
                <mxCell id="W48cUcT3M6QMjZgAQPPY-9" value="&lt;font style=&quot;font-size: 14px&quot;&gt;Bidang 2&lt;/font&gt;" style="rounded=0;whiteSpace=wrap;html=1;labelBackgroundColor=#ffffff;fontSize=11;fontColor=#000000;" vertex="1" parent="PXf2iaB-KW3RzbGrRs00-1">
                    <mxGeometry x="50" y="230" width="190" height="40" as="geometry"/>
                </mxCell>
                <mxCell id="W48cUcT3M6QMjZgAQPPY-10" value="Kategori" style="text;html=1;strokeColor=none;fillColor=none;align=left;verticalAlign=middle;whiteSpace=wrap;rounded=0;labelBackgroundColor=#ffffff;fontSize=16;fontColor=#000000;" vertex="1" parent="PXf2iaB-KW3RzbGrRs00-1">
                    <mxGeometry x="50" y="280" width="190" height="30" as="geometry"/>
                </mxCell>
                <mxCell id="W48cUcT3M6QMjZgAQPPY-11" value="Bidang" style="text;html=1;strokeColor=none;fillColor=none;align=left;verticalAlign=middle;whiteSpace=wrap;rounded=0;labelBackgroundColor=#ffffff;fontSize=16;fontColor=#000000;" vertex="1" parent="PXf2iaB-KW3RzbGrRs00-1">
                    <mxGeometry x="50" y="310" width="190" height="30" as="geometry"/>
                </mxCell>
                <mxCell id="W48cUcT3M6QMjZgAQPPY-12" value="Pengguna" style="text;html=1;strokeColor=none;fillColor=none;align=left;verticalAlign=middle;whiteSpace=wrap;rounded=0;labelBackgroundColor=#ffffff;fontSize=16;fontColor=#000000;" vertex="1" parent="PXf2iaB-KW3RzbGrRs00-1">
                    <mxGeometry x="50" y="340" width="190" height="30" as="geometry"/>
                </mxCell>
                <mxCell id="W48cUcT3M6QMjZgAQPPY-13" value="&lt;font style=&quot;font-size: 11px&quot;&gt;Sistem&lt;/font&gt;" style="text;html=1;strokeColor=none;fillColor=none;align=left;verticalAlign=middle;whiteSpace=wrap;rounded=0;labelBackgroundColor=#ffffff;fontSize=16;fontColor=#000000;" vertex="1" parent="PXf2iaB-KW3RzbGrRs00-1">
                    <mxGeometry x="50" y="370" width="70" height="20" as="geometry"/>
                </mxCell>
                <mxCell id="W48cUcT3M6QMjZgAQPPY-14" value="Ganti Password" style="text;html=1;strokeColor=none;fillColor=none;align=left;verticalAlign=middle;whiteSpace=wrap;rounded=0;labelBackgroundColor=#ffffff;fontSize=16;fontColor=#000000;" vertex="1" parent="PXf2iaB-KW3RzbGrRs00-1">
                    <mxGeometry x="50" y="390" width="190" height="30" as="geometry"/>
                </mxCell>
                <mxCell id="W48cUcT3M6QMjZgAQPPY-15" value="Halaman Pengelolaan Kategori" style="text;html=1;strokeColor=none;fillColor=none;align=left;verticalAlign=middle;whiteSpace=wrap;rounded=0;labelBackgroundColor=#ffffff;fontSize=20;fontColor=#000000;fontStyle=0" vertex="1" parent="PXf2iaB-KW3RzbGrRs00-1">
                    <mxGeometry x="260" y="110" width="360" height="30" as="geometry"/>
                </mxCell>
                <mxCell id="W48cUcT3M6QMjZgAQPPY-16" value="" style="shape=table;html=1;whiteSpace=wrap;startSize=0;container=1;collapsible=0;childLayout=tableLayout;rounded=1;labelBackgroundColor=#ffffff;fontSize=12;fontColor=#000000;" vertex="1" parent="PXf2iaB-KW3RzbGrRs00-1">
                    <mxGeometry x="260" y="230" width="520" height="240" as="geometry"/>
                </mxCell>
                <mxCell id="W48cUcT3M6QMjZgAQPPY-17" value="" style="shape=tableRow;horizontal=0;startSize=0;swimlaneHead=0;swimlaneBody=0;top=0;left=0;bottom=0;right=0;collapsible=0;dropTarget=0;fillColor=none;points=[[0,0.5],[1,0.5]];portConstraint=eastwest;rounded=1;labelBackgroundColor=#ffffff;fontSize=20;fontColor=#000000;" vertex="1" parent="W48cUcT3M6QMjZgAQPPY-16">
                    <mxGeometry width="520" height="40" as="geometry"/>
                </mxCell>
                <mxCell id="W48cUcT3M6QMjZgAQPPY-18" value="#" style="shape=partialRectangle;html=1;whiteSpace=wrap;connectable=0;fillColor=none;top=0;left=0;bottom=0;right=0;overflow=hidden;rounded=1;labelBackgroundColor=#ffffff;fontSize=13;fontColor=#000000;" vertex="1" parent="W48cUcT3M6QMjZgAQPPY-17">
                    <mxGeometry width="108" height="40" as="geometry">
                        <mxRectangle width="108" height="40" as="alternateBounds"/>
                    </mxGeometry>
                </mxCell>
                <mxCell id="W48cUcT3M6QMjZgAQPPY-19" value="&lt;font style=&quot;font-size: 13px&quot;&gt;Nama&lt;/font&gt;" style="shape=partialRectangle;html=1;whiteSpace=wrap;connectable=0;fillColor=none;top=0;left=0;bottom=0;right=0;overflow=hidden;rounded=1;labelBackgroundColor=#ffffff;fontSize=13;fontColor=#000000;" vertex="1" parent="W48cUcT3M6QMjZgAQPPY-17">
                    <mxGeometry x="108" width="107" height="40" as="geometry">
                        <mxRectangle width="107" height="40" as="alternateBounds"/>
                    </mxGeometry>
                </mxCell>
                <mxCell id="W48cUcT3M6QMjZgAQPPY-20" value="&lt;span&gt;Ditambahkan Pada&lt;/span&gt;" style="shape=partialRectangle;html=1;whiteSpace=wrap;connectable=0;fillColor=none;top=0;left=0;bottom=0;right=0;overflow=hidden;rounded=1;labelBackgroundColor=#ffffff;fontSize=13;fontColor=#000000;" vertex="1" parent="W48cUcT3M6QMjZgAQPPY-17">
                    <mxGeometry x="215" width="108" height="40" as="geometry">
                        <mxRectangle width="108" height="40" as="alternateBounds"/>
                    </mxGeometry>
                </mxCell>
                <mxCell id="W48cUcT3M6QMjZgAQPPY-21" value="Terakhir Diubah" style="shape=partialRectangle;html=1;whiteSpace=wrap;connectable=0;fillColor=none;top=0;left=0;bottom=0;right=0;overflow=hidden;rounded=1;labelBackgroundColor=#ffffff;fontSize=13;fontColor=#000000;" vertex="1" parent="W48cUcT3M6QMjZgAQPPY-17">
                    <mxGeometry x="323" width="108" height="40" as="geometry">
                        <mxRectangle width="108" height="40" as="alternateBounds"/>
                    </mxGeometry>
                </mxCell>
                <mxCell id="W48cUcT3M6QMjZgAQPPY-23" value="&lt;span style=&quot;font-size: 13px;&quot;&gt;Aksi&lt;/span&gt;" style="shape=partialRectangle;html=1;whiteSpace=wrap;connectable=0;fillColor=none;top=0;left=0;bottom=0;right=0;overflow=hidden;rounded=1;labelBackgroundColor=#ffffff;fontSize=13;fontColor=#000000;" vertex="1" parent="W48cUcT3M6QMjZgAQPPY-17">
                    <mxGeometry x="431" width="89" height="40" as="geometry">
                        <mxRectangle width="89" height="40" as="alternateBounds"/>
                    </mxGeometry>
                </mxCell>
                <mxCell id="W48cUcT3M6QMjZgAQPPY-24" value="" style="shape=tableRow;horizontal=0;startSize=0;swimlaneHead=0;swimlaneBody=0;top=0;left=0;bottom=0;right=0;collapsible=0;dropTarget=0;fillColor=none;points=[[0,0.5],[1,0.5]];portConstraint=eastwest;rounded=1;labelBackgroundColor=#ffffff;fontSize=20;fontColor=#000000;" vertex="1" parent="W48cUcT3M6QMjZgAQPPY-16">
                    <mxGeometry y="40" width="520" height="40" as="geometry"/>
                </mxCell>
                <mxCell id="W48cUcT3M6QMjZgAQPPY-25" value="" style="shape=partialRectangle;html=1;whiteSpace=wrap;connectable=0;fillColor=none;top=0;left=0;bottom=0;right=0;overflow=hidden;rounded=1;labelBackgroundColor=#ffffff;fontSize=20;fontColor=#000000;" vertex="1" parent="W48cUcT3M6QMjZgAQPPY-24">
                    <mxGeometry width="108" height="40" as="geometry">
                        <mxRectangle width="108" height="40" as="alternateBounds"/>
                    </mxGeometry>
                </mxCell>
                <mxCell id="W48cUcT3M6QMjZgAQPPY-26" value="" style="shape=partialRectangle;html=1;whiteSpace=wrap;connectable=0;fillColor=none;top=0;left=0;bottom=0;right=0;overflow=hidden;rounded=1;labelBackgroundColor=#ffffff;fontSize=20;fontColor=#000000;" vertex="1" parent="W48cUcT3M6QMjZgAQPPY-24">
                    <mxGeometry x="108" width="107" height="40" as="geometry">
                        <mxRectangle width="107" height="40" as="alternateBounds"/>
                    </mxGeometry>
                </mxCell>
                <mxCell id="W48cUcT3M6QMjZgAQPPY-27" value="" style="shape=partialRectangle;html=1;whiteSpace=wrap;connectable=0;fillColor=none;top=0;left=0;bottom=0;right=0;overflow=hidden;rounded=1;labelBackgroundColor=#ffffff;fontSize=20;fontColor=#000000;" vertex="1" parent="W48cUcT3M6QMjZgAQPPY-24">
                    <mxGeometry x="215" width="108" height="40" as="geometry">
                        <mxRectangle width="108" height="40" as="alternateBounds"/>
                    </mxGeometry>
                </mxCell>
                <mxCell id="W48cUcT3M6QMjZgAQPPY-28" style="shape=partialRectangle;html=1;whiteSpace=wrap;connectable=0;fillColor=none;top=0;left=0;bottom=0;right=0;overflow=hidden;rounded=1;labelBackgroundColor=#ffffff;fontSize=20;fontColor=#000000;" vertex="1" parent="W48cUcT3M6QMjZgAQPPY-24">
                    <mxGeometry x="323" width="108" height="40" as="geometry">
                        <mxRectangle width="108" height="40" as="alternateBounds"/>
                    </mxGeometry>
                </mxCell>
                <mxCell id="W48cUcT3M6QMjZgAQPPY-30" style="shape=partialRectangle;html=1;whiteSpace=wrap;connectable=0;fillColor=none;top=0;left=0;bottom=0;right=0;overflow=hidden;rounded=1;labelBackgroundColor=#ffffff;fontSize=20;fontColor=#000000;" vertex="1" parent="W48cUcT3M6QMjZgAQPPY-24">
                    <mxGeometry x="431" width="89" height="40" as="geometry">
                        <mxRectangle width="89" height="40" as="alternateBounds"/>
                    </mxGeometry>
                </mxCell>
                <mxCell id="W48cUcT3M6QMjZgAQPPY-31" value="" style="shape=tableRow;horizontal=0;startSize=0;swimlaneHead=0;swimlaneBody=0;top=0;left=0;bottom=0;right=0;collapsible=0;dropTarget=0;fillColor=none;points=[[0,0.5],[1,0.5]];portConstraint=eastwest;rounded=1;labelBackgroundColor=#ffffff;fontSize=20;fontColor=#000000;" vertex="1" parent="W48cUcT3M6QMjZgAQPPY-16">
                    <mxGeometry y="80" width="520" height="40" as="geometry"/>
                </mxCell>
                <mxCell id="W48cUcT3M6QMjZgAQPPY-32" value="" style="shape=partialRectangle;html=1;whiteSpace=wrap;connectable=0;fillColor=none;top=0;left=0;bottom=0;right=0;overflow=hidden;rounded=1;labelBackgroundColor=#ffffff;fontSize=20;fontColor=#000000;" vertex="1" parent="W48cUcT3M6QMjZgAQPPY-31">
                    <mxGeometry width="108" height="40" as="geometry">
                        <mxRectangle width="108" height="40" as="alternateBounds"/>
                    </mxGeometry>
                </mxCell>
                <mxCell id="W48cUcT3M6QMjZgAQPPY-33" value="" style="shape=partialRectangle;html=1;whiteSpace=wrap;connectable=0;fillColor=none;top=0;left=0;bottom=0;right=0;overflow=hidden;rounded=1;labelBackgroundColor=#ffffff;fontSize=20;fontColor=#000000;" vertex="1" parent="W48cUcT3M6QMjZgAQPPY-31">
                    <mxGeometry x="108" width="107" height="40" as="geometry">
                        <mxRectangle width="107" height="40" as="alternateBounds"/>
                    </mxGeometry>
                </mxCell>
                <mxCell id="W48cUcT3M6QMjZgAQPPY-34" value="" style="shape=partialRectangle;html=1;whiteSpace=wrap;connectable=0;fillColor=none;top=0;left=0;bottom=0;right=0;overflow=hidden;pointerEvents=1;rounded=1;labelBackgroundColor=#ffffff;fontSize=20;fontColor=#000000;" vertex="1" parent="W48cUcT3M6QMjZgAQPPY-31">
                    <mxGeometry x="215" width="108" height="40" as="geometry">
                        <mxRectangle width="108" height="40" as="alternateBounds"/>
                    </mxGeometry>
                </mxCell>
                <mxCell id="W48cUcT3M6QMjZgAQPPY-35" style="shape=partialRectangle;html=1;whiteSpace=wrap;connectable=0;fillColor=none;top=0;left=0;bottom=0;right=0;overflow=hidden;pointerEvents=1;rounded=1;labelBackgroundColor=#ffffff;fontSize=20;fontColor=#000000;" vertex="1" parent="W48cUcT3M6QMjZgAQPPY-31">
                    <mxGeometry x="323" width="108" height="40" as="geometry">
                        <mxRectangle width="108" height="40" as="alternateBounds"/>
                    </mxGeometry>
                </mxCell>
                <mxCell id="W48cUcT3M6QMjZgAQPPY-37" style="shape=partialRectangle;html=1;whiteSpace=wrap;connectable=0;fillColor=none;top=0;left=0;bottom=0;right=0;overflow=hidden;pointerEvents=1;rounded=1;labelBackgroundColor=#ffffff;fontSize=20;fontColor=#000000;" vertex="1" parent="W48cUcT3M6QMjZgAQPPY-31">
                    <mxGeometry x="431" width="89" height="40" as="geometry">
                        <mxRectangle width="89" height="40" as="alternateBounds"/>
                    </mxGeometry>
                </mxCell>
                <mxCell id="W48cUcT3M6QMjZgAQPPY-38" style="shape=tableRow;horizontal=0;startSize=0;swimlaneHead=0;swimlaneBody=0;top=0;left=0;bottom=0;right=0;collapsible=0;dropTarget=0;fillColor=none;points=[[0,0.5],[1,0.5]];portConstraint=eastwest;rounded=1;labelBackgroundColor=#ffffff;fontSize=20;fontColor=#000000;" vertex="1" parent="W48cUcT3M6QMjZgAQPPY-16">
                    <mxGeometry y="120" width="520" height="40" as="geometry"/>
                </mxCell>
                <mxCell id="W48cUcT3M6QMjZgAQPPY-39" style="shape=partialRectangle;html=1;whiteSpace=wrap;connectable=0;fillColor=none;top=0;left=0;bottom=0;right=0;overflow=hidden;rounded=1;labelBackgroundColor=#ffffff;fontSize=20;fontColor=#000000;" vertex="1" parent="W48cUcT3M6QMjZgAQPPY-38">
                    <mxGeometry width="108" height="40" as="geometry">
                        <mxRectangle width="108" height="40" as="alternateBounds"/>
                    </mxGeometry>
                </mxCell>
                <mxCell id="W48cUcT3M6QMjZgAQPPY-40" style="shape=partialRectangle;html=1;whiteSpace=wrap;connectable=0;fillColor=none;top=0;left=0;bottom=0;right=0;overflow=hidden;rounded=1;labelBackgroundColor=#ffffff;fontSize=20;fontColor=#000000;" vertex="1" parent="W48cUcT3M6QMjZgAQPPY-38">
                    <mxGeometry x="108" width="107" height="40" as="geometry">
                        <mxRectangle width="107" height="40" as="alternateBounds"/>
                    </mxGeometry>
                </mxCell>
                <mxCell id="W48cUcT3M6QMjZgAQPPY-41" style="shape=partialRectangle;html=1;whiteSpace=wrap;connectable=0;fillColor=none;top=0;left=0;bottom=0;right=0;overflow=hidden;pointerEvents=1;rounded=1;labelBackgroundColor=#ffffff;fontSize=20;fontColor=#000000;" vertex="1" parent="W48cUcT3M6QMjZgAQPPY-38">
                    <mxGeometry x="215" width="108" height="40" as="geometry">
                        <mxRectangle width="108" height="40" as="alternateBounds"/>
                    </mxGeometry>
                </mxCell>
                <mxCell id="W48cUcT3M6QMjZgAQPPY-42" style="shape=partialRectangle;html=1;whiteSpace=wrap;connectable=0;fillColor=none;top=0;left=0;bottom=0;right=0;overflow=hidden;pointerEvents=1;rounded=1;labelBackgroundColor=#ffffff;fontSize=20;fontColor=#000000;" vertex="1" parent="W48cUcT3M6QMjZgAQPPY-38">
                    <mxGeometry x="323" width="108" height="40" as="geometry">
                        <mxRectangle width="108" height="40" as="alternateBounds"/>
                    </mxGeometry>
                </mxCell>
                <mxCell id="W48cUcT3M6QMjZgAQPPY-44" style="shape=partialRectangle;html=1;whiteSpace=wrap;connectable=0;fillColor=none;top=0;left=0;bottom=0;right=0;overflow=hidden;pointerEvents=1;rounded=1;labelBackgroundColor=#ffffff;fontSize=20;fontColor=#000000;" vertex="1" parent="W48cUcT3M6QMjZgAQPPY-38">
                    <mxGeometry x="431" width="89" height="40" as="geometry">
                        <mxRectangle width="89" height="40" as="alternateBounds"/>
                    </mxGeometry>
                </mxCell>
                <mxCell id="W48cUcT3M6QMjZgAQPPY-45" style="shape=tableRow;horizontal=0;startSize=0;swimlaneHead=0;swimlaneBody=0;top=0;left=0;bottom=0;right=0;collapsible=0;dropTarget=0;fillColor=none;points=[[0,0.5],[1,0.5]];portConstraint=eastwest;rounded=1;labelBackgroundColor=#ffffff;fontSize=20;fontColor=#000000;" vertex="1" parent="W48cUcT3M6QMjZgAQPPY-16">
                    <mxGeometry y="160" width="520" height="40" as="geometry"/>
                </mxCell>
                <mxCell id="W48cUcT3M6QMjZgAQPPY-46" style="shape=partialRectangle;html=1;whiteSpace=wrap;connectable=0;fillColor=none;top=0;left=0;bottom=0;right=0;overflow=hidden;rounded=1;labelBackgroundColor=#ffffff;fontSize=20;fontColor=#000000;" vertex="1" parent="W48cUcT3M6QMjZgAQPPY-45">
                    <mxGeometry width="108" height="40" as="geometry">
                        <mxRectangle width="108" height="40" as="alternateBounds"/>
                    </mxGeometry>
                </mxCell>
                <mxCell id="W48cUcT3M6QMjZgAQPPY-47" style="shape=partialRectangle;html=1;whiteSpace=wrap;connectable=0;fillColor=none;top=0;left=0;bottom=0;right=0;overflow=hidden;rounded=1;labelBackgroundColor=#ffffff;fontSize=20;fontColor=#000000;" vertex="1" parent="W48cUcT3M6QMjZgAQPPY-45">
                    <mxGeometry x="108" width="107" height="40" as="geometry">
                        <mxRectangle width="107" height="40" as="alternateBounds"/>
                    </mxGeometry>
                </mxCell>
                <mxCell id="W48cUcT3M6QMjZgAQPPY-48" style="shape=partialRectangle;html=1;whiteSpace=wrap;connectable=0;fillColor=none;top=0;left=0;bottom=0;right=0;overflow=hidden;pointerEvents=1;rounded=1;labelBackgroundColor=#ffffff;fontSize=20;fontColor=#000000;" vertex="1" parent="W48cUcT3M6QMjZgAQPPY-45">
                    <mxGeometry x="215" width="108" height="40" as="geometry">
                        <mxRectangle width="108" height="40" as="alternateBounds"/>
                    </mxGeometry>
                </mxCell>
                <mxCell id="W48cUcT3M6QMjZgAQPPY-49" style="shape=partialRectangle;html=1;whiteSpace=wrap;connectable=0;fillColor=none;top=0;left=0;bottom=0;right=0;overflow=hidden;pointerEvents=1;rounded=1;labelBackgroundColor=#ffffff;fontSize=20;fontColor=#000000;" vertex="1" parent="W48cUcT3M6QMjZgAQPPY-45">
                    <mxGeometry x="323" width="108" height="40" as="geometry">
                        <mxRectangle width="108" height="40" as="alternateBounds"/>
                    </mxGeometry>
                </mxCell>
                <mxCell id="W48cUcT3M6QMjZgAQPPY-51" style="shape=partialRectangle;html=1;whiteSpace=wrap;connectable=0;fillColor=none;top=0;left=0;bottom=0;right=0;overflow=hidden;pointerEvents=1;rounded=1;labelBackgroundColor=#ffffff;fontSize=20;fontColor=#000000;" vertex="1" parent="W48cUcT3M6QMjZgAQPPY-45">
                    <mxGeometry x="431" width="89" height="40" as="geometry">
                        <mxRectangle width="89" height="40" as="alternateBounds"/>
                    </mxGeometry>
                </mxCell>
                <mxCell id="W48cUcT3M6QMjZgAQPPY-52" style="shape=tableRow;horizontal=0;startSize=0;swimlaneHead=0;swimlaneBody=0;top=0;left=0;bottom=0;right=0;collapsible=0;dropTarget=0;fillColor=none;points=[[0,0.5],[1,0.5]];portConstraint=eastwest;rounded=1;labelBackgroundColor=#ffffff;fontSize=20;fontColor=#000000;" vertex="1" parent="W48cUcT3M6QMjZgAQPPY-16">
                    <mxGeometry y="200" width="520" height="40" as="geometry"/>
                </mxCell>
                <mxCell id="W48cUcT3M6QMjZgAQPPY-53" style="shape=partialRectangle;html=1;whiteSpace=wrap;connectable=0;fillColor=none;top=0;left=0;bottom=0;right=0;overflow=hidden;rounded=1;labelBackgroundColor=#ffffff;fontSize=20;fontColor=#000000;" vertex="1" parent="W48cUcT3M6QMjZgAQPPY-52">
                    <mxGeometry width="108" height="40" as="geometry">
                        <mxRectangle width="108" height="40" as="alternateBounds"/>
                    </mxGeometry>
                </mxCell>
                <mxCell id="W48cUcT3M6QMjZgAQPPY-54" style="shape=partialRectangle;html=1;whiteSpace=wrap;connectable=0;fillColor=none;top=0;left=0;bottom=0;right=0;overflow=hidden;rounded=1;labelBackgroundColor=#ffffff;fontSize=20;fontColor=#000000;" vertex="1" parent="W48cUcT3M6QMjZgAQPPY-52">
                    <mxGeometry x="108" width="107" height="40" as="geometry">
                        <mxRectangle width="107" height="40" as="alternateBounds"/>
                    </mxGeometry>
                </mxCell>
                <mxCell id="W48cUcT3M6QMjZgAQPPY-55" style="shape=partialRectangle;html=1;whiteSpace=wrap;connectable=0;fillColor=none;top=0;left=0;bottom=0;right=0;overflow=hidden;pointerEvents=1;rounded=1;labelBackgroundColor=#ffffff;fontSize=20;fontColor=#000000;" vertex="1" parent="W48cUcT3M6QMjZgAQPPY-52">
                    <mxGeometry x="215" width="108" height="40" as="geometry">
                        <mxRectangle width="108" height="40" as="alternateBounds"/>
                    </mxGeometry>
                </mxCell>
                <mxCell id="W48cUcT3M6QMjZgAQPPY-56" style="shape=partialRectangle;html=1;whiteSpace=wrap;connectable=0;fillColor=none;top=0;left=0;bottom=0;right=0;overflow=hidden;pointerEvents=1;rounded=1;labelBackgroundColor=#ffffff;fontSize=20;fontColor=#000000;" vertex="1" parent="W48cUcT3M6QMjZgAQPPY-52">
                    <mxGeometry x="323" width="108" height="40" as="geometry">
                        <mxRectangle width="108" height="40" as="alternateBounds"/>
                    </mxGeometry>
                </mxCell>
                <mxCell id="W48cUcT3M6QMjZgAQPPY-58" style="shape=partialRectangle;html=1;whiteSpace=wrap;connectable=0;fillColor=none;top=0;left=0;bottom=0;right=0;overflow=hidden;pointerEvents=1;rounded=1;labelBackgroundColor=#ffffff;fontSize=20;fontColor=#000000;" vertex="1" parent="W48cUcT3M6QMjZgAQPPY-52">
                    <mxGeometry x="431" width="89" height="40" as="geometry">
                        <mxRectangle width="89" height="40" as="alternateBounds"/>
                    </mxGeometry>
                </mxCell>
                <mxCell id="W48cUcT3M6QMjZgAQPPY-59" value="" style="rounded=1;whiteSpace=wrap;html=1;labelBackgroundColor=#ffffff;fontSize=13;fontColor=#000000;" vertex="1" parent="PXf2iaB-KW3RzbGrRs00-1">
                    <mxGeometry x="710" y="200" width="70" height="20" as="geometry"/>
                </mxCell>
                <mxCell id="W48cUcT3M6QMjZgAQPPY-60" value="&lt;font style=&quot;font-size: 12px&quot;&gt;Pencarian&lt;/font&gt;" style="text;html=1;strokeColor=none;fillColor=none;align=center;verticalAlign=middle;whiteSpace=wrap;rounded=0;labelBackgroundColor=#ffffff;fontSize=13;fontColor=#000000;" vertex="1" parent="PXf2iaB-KW3RzbGrRs00-1">
                    <mxGeometry x="640" y="195" width="60" height="30" as="geometry"/>
                </mxCell>
                <mxCell id="W48cUcT3M6QMjZgAQPPY-61" value="10" style="rounded=1;whiteSpace=wrap;html=1;labelBackgroundColor=#ffffff;fontSize=13;fontColor=#000000;" vertex="1" parent="PXf2iaB-KW3RzbGrRs00-1">
                    <mxGeometry x="320" y="205" width="20" height="20" as="geometry"/>
                </mxCell>
                <mxCell id="W48cUcT3M6QMjZgAQPPY-62" value="&lt;font style=&quot;font-size: 12px&quot;&gt;Tampilkan&lt;/font&gt;" style="text;html=1;strokeColor=none;fillColor=none;align=left;verticalAlign=middle;whiteSpace=wrap;rounded=0;labelBackgroundColor=#ffffff;fontSize=13;fontColor=#000000;" vertex="1" parent="PXf2iaB-KW3RzbGrRs00-1">
                    <mxGeometry x="260" y="200" width="60" height="30" as="geometry"/>
                </mxCell>
                <mxCell id="W48cUcT3M6QMjZgAQPPY-63" value="&lt;font style=&quot;font-size: 12px&quot;&gt;data&lt;/font&gt;" style="text;html=1;strokeColor=none;fillColor=none;align=left;verticalAlign=middle;whiteSpace=wrap;rounded=0;labelBackgroundColor=#ffffff;fontSize=13;fontColor=#000000;" vertex="1" parent="PXf2iaB-KW3RzbGrRs00-1">
                    <mxGeometry x="350" y="200" width="30" height="30" as="geometry"/>
                </mxCell>
                <mxCell id="W48cUcT3M6QMjZgAQPPY-64" value="Tambah" style="rounded=1;whiteSpace=wrap;html=1;labelBackgroundColor=#ffffff;fontSize=15;fontColor=#000000;" vertex="1" parent="PXf2iaB-KW3RzbGrRs00-1">
                    <mxGeometry x="260" y="157.5" width="70" height="30" as="geometry"/>
                </mxCell>
            </root>
        </mxGraphModel>
    </diagram>
    <diagram id="yicyhosWQHfOkbnyw-T6" name="Bidang">
        <mxGraphModel dx="1103" dy="582" grid="1" gridSize="10" guides="1" tooltips="1" connect="1" arrows="1" fold="1" page="1" pageScale="1" pageWidth="850" pageHeight="1100" math="0" shadow="0">
            <root>
                <mxCell id="Fq9fPvSMB5XCuXRLtOgb-0"/>
                <mxCell id="Fq9fPvSMB5XCuXRLtOgb-1" parent="Fq9fPvSMB5XCuXRLtOgb-0"/>
                <mxCell id="98AjTZE761NsSg1GRjG2-0" value="" style="rounded=0;whiteSpace=wrap;html=1;" vertex="1" parent="Fq9fPvSMB5XCuXRLtOgb-1">
                    <mxGeometry x="40" y="40" width="760" height="440" as="geometry"/>
                </mxCell>
                <mxCell id="98AjTZE761NsSg1GRjG2-1" value="SIM Arsip DLH Kota Madiun" style="rounded=0;whiteSpace=wrap;html=1;fontSize=16;align=left;" vertex="1" parent="Fq9fPvSMB5XCuXRLtOgb-1">
                    <mxGeometry x="40" y="40" width="760" height="60" as="geometry"/>
                </mxCell>
                <mxCell id="98AjTZE761NsSg1GRjG2-2" value="Keluar" style="rounded=0;whiteSpace=wrap;html=1;labelBackgroundColor=#ffffff;fontSize=16;fontColor=#000000;" vertex="1" parent="Fq9fPvSMB5XCuXRLtOgb-1">
                    <mxGeometry x="720" y="40" width="80" height="60" as="geometry"/>
                </mxCell>
                <mxCell id="98AjTZE761NsSg1GRjG2-3" value="" style="rounded=0;whiteSpace=wrap;html=1;labelBackgroundColor=#ffffff;fontSize=16;fontColor=#000000;" vertex="1" parent="Fq9fPvSMB5XCuXRLtOgb-1">
                    <mxGeometry x="40" y="100" width="210" height="380" as="geometry"/>
                </mxCell>
                <mxCell id="98AjTZE761NsSg1GRjG2-4" value="Data Arsip" style="text;html=1;strokeColor=none;fillColor=none;align=left;verticalAlign=middle;whiteSpace=wrap;rounded=0;labelBackgroundColor=#ffffff;fontSize=16;fontColor=#000000;" vertex="1" parent="Fq9fPvSMB5XCuXRLtOgb-1">
                    <mxGeometry x="50" y="110" width="190" height="30" as="geometry"/>
                </mxCell>
                <mxCell id="98AjTZE761NsSg1GRjG2-5" value="&lt;font style=&quot;font-size: 11px&quot;&gt;Administrator&lt;/font&gt;" style="text;html=1;strokeColor=none;fillColor=none;align=left;verticalAlign=middle;whiteSpace=wrap;rounded=0;labelBackgroundColor=#ffffff;fontSize=16;fontColor=#000000;" vertex="1" parent="Fq9fPvSMB5XCuXRLtOgb-1">
                    <mxGeometry x="50" y="140" width="70" height="20" as="geometry"/>
                </mxCell>
                <mxCell id="98AjTZE761NsSg1GRjG2-6" value="Arsip Bidang" style="text;html=1;strokeColor=none;fillColor=none;align=left;verticalAlign=middle;whiteSpace=wrap;rounded=0;labelBackgroundColor=#ffffff;fontSize=16;fontColor=#000000;" vertex="1" parent="Fq9fPvSMB5XCuXRLtOgb-1">
                    <mxGeometry x="50" y="160" width="190" height="30" as="geometry"/>
                </mxCell>
                <mxCell id="98AjTZE761NsSg1GRjG2-7" value="" style="rounded=0;whiteSpace=wrap;html=1;labelBackgroundColor=#ffffff;fontSize=11;fontColor=#000000;" vertex="1" parent="Fq9fPvSMB5XCuXRLtOgb-1">
                    <mxGeometry x="50" y="190" width="190" height="80" as="geometry"/>
                </mxCell>
                <mxCell id="98AjTZE761NsSg1GRjG2-8" value="&lt;font style=&quot;font-size: 14px&quot;&gt;Bidang 1&lt;/font&gt;" style="rounded=0;whiteSpace=wrap;html=1;labelBackgroundColor=#ffffff;fontSize=11;fontColor=#000000;" vertex="1" parent="Fq9fPvSMB5XCuXRLtOgb-1">
                    <mxGeometry x="50" y="190" width="190" height="40" as="geometry"/>
                </mxCell>
                <mxCell id="98AjTZE761NsSg1GRjG2-9" value="&lt;font style=&quot;font-size: 14px&quot;&gt;Bidang 2&lt;/font&gt;" style="rounded=0;whiteSpace=wrap;html=1;labelBackgroundColor=#ffffff;fontSize=11;fontColor=#000000;" vertex="1" parent="Fq9fPvSMB5XCuXRLtOgb-1">
                    <mxGeometry x="50" y="230" width="190" height="40" as="geometry"/>
                </mxCell>
                <mxCell id="98AjTZE761NsSg1GRjG2-10" value="Kategori" style="text;html=1;strokeColor=none;fillColor=none;align=left;verticalAlign=middle;whiteSpace=wrap;rounded=0;labelBackgroundColor=#ffffff;fontSize=16;fontColor=#000000;" vertex="1" parent="Fq9fPvSMB5XCuXRLtOgb-1">
                    <mxGeometry x="50" y="280" width="190" height="30" as="geometry"/>
                </mxCell>
                <mxCell id="98AjTZE761NsSg1GRjG2-11" value="Bidang" style="text;html=1;strokeColor=none;fillColor=none;align=left;verticalAlign=middle;whiteSpace=wrap;rounded=0;labelBackgroundColor=#ffffff;fontSize=16;fontColor=#000000;" vertex="1" parent="Fq9fPvSMB5XCuXRLtOgb-1">
                    <mxGeometry x="50" y="310" width="190" height="30" as="geometry"/>
                </mxCell>
                <mxCell id="98AjTZE761NsSg1GRjG2-12" value="Pengguna" style="text;html=1;strokeColor=none;fillColor=none;align=left;verticalAlign=middle;whiteSpace=wrap;rounded=0;labelBackgroundColor=#ffffff;fontSize=16;fontColor=#000000;" vertex="1" parent="Fq9fPvSMB5XCuXRLtOgb-1">
                    <mxGeometry x="50" y="340" width="190" height="30" as="geometry"/>
                </mxCell>
                <mxCell id="98AjTZE761NsSg1GRjG2-13" value="&lt;font style=&quot;font-size: 11px&quot;&gt;Sistem&lt;/font&gt;" style="text;html=1;strokeColor=none;fillColor=none;align=left;verticalAlign=middle;whiteSpace=wrap;rounded=0;labelBackgroundColor=#ffffff;fontSize=16;fontColor=#000000;" vertex="1" parent="Fq9fPvSMB5XCuXRLtOgb-1">
                    <mxGeometry x="50" y="370" width="70" height="20" as="geometry"/>
                </mxCell>
                <mxCell id="98AjTZE761NsSg1GRjG2-14" value="Ganti Password" style="text;html=1;strokeColor=none;fillColor=none;align=left;verticalAlign=middle;whiteSpace=wrap;rounded=0;labelBackgroundColor=#ffffff;fontSize=16;fontColor=#000000;" vertex="1" parent="Fq9fPvSMB5XCuXRLtOgb-1">
                    <mxGeometry x="50" y="390" width="190" height="30" as="geometry"/>
                </mxCell>
                <mxCell id="98AjTZE761NsSg1GRjG2-15" value="Halaman Pengelolaan Bidang" style="text;html=1;strokeColor=none;fillColor=none;align=left;verticalAlign=middle;whiteSpace=wrap;rounded=0;labelBackgroundColor=#ffffff;fontSize=20;fontColor=#000000;fontStyle=0" vertex="1" parent="Fq9fPvSMB5XCuXRLtOgb-1">
                    <mxGeometry x="260" y="110" width="360" height="30" as="geometry"/>
                </mxCell>
                <mxCell id="98AjTZE761NsSg1GRjG2-16" value="" style="shape=table;html=1;whiteSpace=wrap;startSize=0;container=1;collapsible=0;childLayout=tableLayout;rounded=1;labelBackgroundColor=#ffffff;fontSize=12;fontColor=#000000;" vertex="1" parent="Fq9fPvSMB5XCuXRLtOgb-1">
                    <mxGeometry x="260" y="230" width="520" height="240" as="geometry"/>
                </mxCell>
                <mxCell id="98AjTZE761NsSg1GRjG2-17" value="" style="shape=tableRow;horizontal=0;startSize=0;swimlaneHead=0;swimlaneBody=0;top=0;left=0;bottom=0;right=0;collapsible=0;dropTarget=0;fillColor=none;points=[[0,0.5],[1,0.5]];portConstraint=eastwest;rounded=1;labelBackgroundColor=#ffffff;fontSize=20;fontColor=#000000;" vertex="1" parent="98AjTZE761NsSg1GRjG2-16">
                    <mxGeometry width="520" height="40" as="geometry"/>
                </mxCell>
                <mxCell id="98AjTZE761NsSg1GRjG2-18" value="#" style="shape=partialRectangle;html=1;whiteSpace=wrap;connectable=0;fillColor=none;top=0;left=0;bottom=0;right=0;overflow=hidden;rounded=1;labelBackgroundColor=#ffffff;fontSize=13;fontColor=#000000;" vertex="1" parent="98AjTZE761NsSg1GRjG2-17">
                    <mxGeometry width="108" height="40" as="geometry">
                        <mxRectangle width="108" height="40" as="alternateBounds"/>
                    </mxGeometry>
                </mxCell>
                <mxCell id="98AjTZE761NsSg1GRjG2-19" value="&lt;font style=&quot;font-size: 13px&quot;&gt;Nama&lt;/font&gt;" style="shape=partialRectangle;html=1;whiteSpace=wrap;connectable=0;fillColor=none;top=0;left=0;bottom=0;right=0;overflow=hidden;rounded=1;labelBackgroundColor=#ffffff;fontSize=13;fontColor=#000000;" vertex="1" parent="98AjTZE761NsSg1GRjG2-17">
                    <mxGeometry x="108" width="107" height="40" as="geometry">
                        <mxRectangle width="107" height="40" as="alternateBounds"/>
                    </mxGeometry>
                </mxCell>
                <mxCell id="98AjTZE761NsSg1GRjG2-20" value="&lt;span&gt;Ditambahkan Pada&lt;/span&gt;" style="shape=partialRectangle;html=1;whiteSpace=wrap;connectable=0;fillColor=none;top=0;left=0;bottom=0;right=0;overflow=hidden;rounded=1;labelBackgroundColor=#ffffff;fontSize=13;fontColor=#000000;" vertex="1" parent="98AjTZE761NsSg1GRjG2-17">
                    <mxGeometry x="215" width="108" height="40" as="geometry">
                        <mxRectangle width="108" height="40" as="alternateBounds"/>
                    </mxGeometry>
                </mxCell>
                <mxCell id="98AjTZE761NsSg1GRjG2-21" value="Terakhir Diubah" style="shape=partialRectangle;html=1;whiteSpace=wrap;connectable=0;fillColor=none;top=0;left=0;bottom=0;right=0;overflow=hidden;rounded=1;labelBackgroundColor=#ffffff;fontSize=13;fontColor=#000000;" vertex="1" parent="98AjTZE761NsSg1GRjG2-17">
                    <mxGeometry x="323" width="108" height="40" as="geometry">
                        <mxRectangle width="108" height="40" as="alternateBounds"/>
                    </mxGeometry>
                </mxCell>
                <mxCell id="98AjTZE761NsSg1GRjG2-22" value="&lt;span style=&quot;font-size: 13px;&quot;&gt;Aksi&lt;/span&gt;" style="shape=partialRectangle;html=1;whiteSpace=wrap;connectable=0;fillColor=none;top=0;left=0;bottom=0;right=0;overflow=hidden;rounded=1;labelBackgroundColor=#ffffff;fontSize=13;fontColor=#000000;" vertex="1" parent="98AjTZE761NsSg1GRjG2-17">
                    <mxGeometry x="431" width="89" height="40" as="geometry">
                        <mxRectangle width="89" height="40" as="alternateBounds"/>
                    </mxGeometry>
                </mxCell>
                <mxCell id="98AjTZE761NsSg1GRjG2-23" value="" style="shape=tableRow;horizontal=0;startSize=0;swimlaneHead=0;swimlaneBody=0;top=0;left=0;bottom=0;right=0;collapsible=0;dropTarget=0;fillColor=none;points=[[0,0.5],[1,0.5]];portConstraint=eastwest;rounded=1;labelBackgroundColor=#ffffff;fontSize=20;fontColor=#000000;" vertex="1" parent="98AjTZE761NsSg1GRjG2-16">
                    <mxGeometry y="40" width="520" height="40" as="geometry"/>
                </mxCell>
                <mxCell id="98AjTZE761NsSg1GRjG2-24" value="" style="shape=partialRectangle;html=1;whiteSpace=wrap;connectable=0;fillColor=none;top=0;left=0;bottom=0;right=0;overflow=hidden;rounded=1;labelBackgroundColor=#ffffff;fontSize=20;fontColor=#000000;" vertex="1" parent="98AjTZE761NsSg1GRjG2-23">
                    <mxGeometry width="108" height="40" as="geometry">
                        <mxRectangle width="108" height="40" as="alternateBounds"/>
                    </mxGeometry>
                </mxCell>
                <mxCell id="98AjTZE761NsSg1GRjG2-25" value="" style="shape=partialRectangle;html=1;whiteSpace=wrap;connectable=0;fillColor=none;top=0;left=0;bottom=0;right=0;overflow=hidden;rounded=1;labelBackgroundColor=#ffffff;fontSize=20;fontColor=#000000;" vertex="1" parent="98AjTZE761NsSg1GRjG2-23">
                    <mxGeometry x="108" width="107" height="40" as="geometry">
                        <mxRectangle width="107" height="40" as="alternateBounds"/>
                    </mxGeometry>
                </mxCell>
                <mxCell id="98AjTZE761NsSg1GRjG2-26" value="" style="shape=partialRectangle;html=1;whiteSpace=wrap;connectable=0;fillColor=none;top=0;left=0;bottom=0;right=0;overflow=hidden;rounded=1;labelBackgroundColor=#ffffff;fontSize=20;fontColor=#000000;" vertex="1" parent="98AjTZE761NsSg1GRjG2-23">
                    <mxGeometry x="215" width="108" height="40" as="geometry">
                        <mxRectangle width="108" height="40" as="alternateBounds"/>
                    </mxGeometry>
                </mxCell>
                <mxCell id="98AjTZE761NsSg1GRjG2-27" style="shape=partialRectangle;html=1;whiteSpace=wrap;connectable=0;fillColor=none;top=0;left=0;bottom=0;right=0;overflow=hidden;rounded=1;labelBackgroundColor=#ffffff;fontSize=20;fontColor=#000000;" vertex="1" parent="98AjTZE761NsSg1GRjG2-23">
                    <mxGeometry x="323" width="108" height="40" as="geometry">
                        <mxRectangle width="108" height="40" as="alternateBounds"/>
                    </mxGeometry>
                </mxCell>
                <mxCell id="98AjTZE761NsSg1GRjG2-28" style="shape=partialRectangle;html=1;whiteSpace=wrap;connectable=0;fillColor=none;top=0;left=0;bottom=0;right=0;overflow=hidden;rounded=1;labelBackgroundColor=#ffffff;fontSize=20;fontColor=#000000;" vertex="1" parent="98AjTZE761NsSg1GRjG2-23">
                    <mxGeometry x="431" width="89" height="40" as="geometry">
                        <mxRectangle width="89" height="40" as="alternateBounds"/>
                    </mxGeometry>
                </mxCell>
                <mxCell id="98AjTZE761NsSg1GRjG2-29" value="" style="shape=tableRow;horizontal=0;startSize=0;swimlaneHead=0;swimlaneBody=0;top=0;left=0;bottom=0;right=0;collapsible=0;dropTarget=0;fillColor=none;points=[[0,0.5],[1,0.5]];portConstraint=eastwest;rounded=1;labelBackgroundColor=#ffffff;fontSize=20;fontColor=#000000;" vertex="1" parent="98AjTZE761NsSg1GRjG2-16">
                    <mxGeometry y="80" width="520" height="40" as="geometry"/>
                </mxCell>
                <mxCell id="98AjTZE761NsSg1GRjG2-30" value="" style="shape=partialRectangle;html=1;whiteSpace=wrap;connectable=0;fillColor=none;top=0;left=0;bottom=0;right=0;overflow=hidden;rounded=1;labelBackgroundColor=#ffffff;fontSize=20;fontColor=#000000;" vertex="1" parent="98AjTZE761NsSg1GRjG2-29">
                    <mxGeometry width="108" height="40" as="geometry">
                        <mxRectangle width="108" height="40" as="alternateBounds"/>
                    </mxGeometry>
                </mxCell>
                <mxCell id="98AjTZE761NsSg1GRjG2-31" value="" style="shape=partialRectangle;html=1;whiteSpace=wrap;connectable=0;fillColor=none;top=0;left=0;bottom=0;right=0;overflow=hidden;rounded=1;labelBackgroundColor=#ffffff;fontSize=20;fontColor=#000000;" vertex="1" parent="98AjTZE761NsSg1GRjG2-29">
                    <mxGeometry x="108" width="107" height="40" as="geometry">
                        <mxRectangle width="107" height="40" as="alternateBounds"/>
                    </mxGeometry>
                </mxCell>
                <mxCell id="98AjTZE761NsSg1GRjG2-32" value="" style="shape=partialRectangle;html=1;whiteSpace=wrap;connectable=0;fillColor=none;top=0;left=0;bottom=0;right=0;overflow=hidden;pointerEvents=1;rounded=1;labelBackgroundColor=#ffffff;fontSize=20;fontColor=#000000;" vertex="1" parent="98AjTZE761NsSg1GRjG2-29">
                    <mxGeometry x="215" width="108" height="40" as="geometry">
                        <mxRectangle width="108" height="40" as="alternateBounds"/>
                    </mxGeometry>
                </mxCell>
                <mxCell id="98AjTZE761NsSg1GRjG2-33" style="shape=partialRectangle;html=1;whiteSpace=wrap;connectable=0;fillColor=none;top=0;left=0;bottom=0;right=0;overflow=hidden;pointerEvents=1;rounded=1;labelBackgroundColor=#ffffff;fontSize=20;fontColor=#000000;" vertex="1" parent="98AjTZE761NsSg1GRjG2-29">
                    <mxGeometry x="323" width="108" height="40" as="geometry">
                        <mxRectangle width="108" height="40" as="alternateBounds"/>
                    </mxGeometry>
                </mxCell>
                <mxCell id="98AjTZE761NsSg1GRjG2-34" style="shape=partialRectangle;html=1;whiteSpace=wrap;connectable=0;fillColor=none;top=0;left=0;bottom=0;right=0;overflow=hidden;pointerEvents=1;rounded=1;labelBackgroundColor=#ffffff;fontSize=20;fontColor=#000000;" vertex="1" parent="98AjTZE761NsSg1GRjG2-29">
                    <mxGeometry x="431" width="89" height="40" as="geometry">
                        <mxRectangle width="89" height="40" as="alternateBounds"/>
                    </mxGeometry>
                </mxCell>
                <mxCell id="98AjTZE761NsSg1GRjG2-35" style="shape=tableRow;horizontal=0;startSize=0;swimlaneHead=0;swimlaneBody=0;top=0;left=0;bottom=0;right=0;collapsible=0;dropTarget=0;fillColor=none;points=[[0,0.5],[1,0.5]];portConstraint=eastwest;rounded=1;labelBackgroundColor=#ffffff;fontSize=20;fontColor=#000000;" vertex="1" parent="98AjTZE761NsSg1GRjG2-16">
                    <mxGeometry y="120" width="520" height="40" as="geometry"/>
                </mxCell>
                <mxCell id="98AjTZE761NsSg1GRjG2-36" style="shape=partialRectangle;html=1;whiteSpace=wrap;connectable=0;fillColor=none;top=0;left=0;bottom=0;right=0;overflow=hidden;rounded=1;labelBackgroundColor=#ffffff;fontSize=20;fontColor=#000000;" vertex="1" parent="98AjTZE761NsSg1GRjG2-35">
                    <mxGeometry width="108" height="40" as="geometry">
                        <mxRectangle width="108" height="40" as="alternateBounds"/>
                    </mxGeometry>
                </mxCell>
                <mxCell id="98AjTZE761NsSg1GRjG2-37" style="shape=partialRectangle;html=1;whiteSpace=wrap;connectable=0;fillColor=none;top=0;left=0;bottom=0;right=0;overflow=hidden;rounded=1;labelBackgroundColor=#ffffff;fontSize=20;fontColor=#000000;" vertex="1" parent="98AjTZE761NsSg1GRjG2-35">
                    <mxGeometry x="108" width="107" height="40" as="geometry">
                        <mxRectangle width="107" height="40" as="alternateBounds"/>
                    </mxGeometry>
                </mxCell>
                <mxCell id="98AjTZE761NsSg1GRjG2-38" style="shape=partialRectangle;html=1;whiteSpace=wrap;connectable=0;fillColor=none;top=0;left=0;bottom=0;right=0;overflow=hidden;pointerEvents=1;rounded=1;labelBackgroundColor=#ffffff;fontSize=20;fontColor=#000000;" vertex="1" parent="98AjTZE761NsSg1GRjG2-35">
                    <mxGeometry x="215" width="108" height="40" as="geometry">
                        <mxRectangle width="108" height="40" as="alternateBounds"/>
                    </mxGeometry>
                </mxCell>
                <mxCell id="98AjTZE761NsSg1GRjG2-39" style="shape=partialRectangle;html=1;whiteSpace=wrap;connectable=0;fillColor=none;top=0;left=0;bottom=0;right=0;overflow=hidden;pointerEvents=1;rounded=1;labelBackgroundColor=#ffffff;fontSize=20;fontColor=#000000;" vertex="1" parent="98AjTZE761NsSg1GRjG2-35">
                    <mxGeometry x="323" width="108" height="40" as="geometry">
                        <mxRectangle width="108" height="40" as="alternateBounds"/>
                    </mxGeometry>
                </mxCell>
                <mxCell id="98AjTZE761NsSg1GRjG2-40" style="shape=partialRectangle;html=1;whiteSpace=wrap;connectable=0;fillColor=none;top=0;left=0;bottom=0;right=0;overflow=hidden;pointerEvents=1;rounded=1;labelBackgroundColor=#ffffff;fontSize=20;fontColor=#000000;" vertex="1" parent="98AjTZE761NsSg1GRjG2-35">
                    <mxGeometry x="431" width="89" height="40" as="geometry">
                        <mxRectangle width="89" height="40" as="alternateBounds"/>
                    </mxGeometry>
                </mxCell>
                <mxCell id="98AjTZE761NsSg1GRjG2-41" style="shape=tableRow;horizontal=0;startSize=0;swimlaneHead=0;swimlaneBody=0;top=0;left=0;bottom=0;right=0;collapsible=0;dropTarget=0;fillColor=none;points=[[0,0.5],[1,0.5]];portConstraint=eastwest;rounded=1;labelBackgroundColor=#ffffff;fontSize=20;fontColor=#000000;" vertex="1" parent="98AjTZE761NsSg1GRjG2-16">
                    <mxGeometry y="160" width="520" height="40" as="geometry"/>
                </mxCell>
                <mxCell id="98AjTZE761NsSg1GRjG2-42" style="shape=partialRectangle;html=1;whiteSpace=wrap;connectable=0;fillColor=none;top=0;left=0;bottom=0;right=0;overflow=hidden;rounded=1;labelBackgroundColor=#ffffff;fontSize=20;fontColor=#000000;" vertex="1" parent="98AjTZE761NsSg1GRjG2-41">
                    <mxGeometry width="108" height="40" as="geometry">
                        <mxRectangle width="108" height="40" as="alternateBounds"/>
                    </mxGeometry>
                </mxCell>
                <mxCell id="98AjTZE761NsSg1GRjG2-43" style="shape=partialRectangle;html=1;whiteSpace=wrap;connectable=0;fillColor=none;top=0;left=0;bottom=0;right=0;overflow=hidden;rounded=1;labelBackgroundColor=#ffffff;fontSize=20;fontColor=#000000;" vertex="1" parent="98AjTZE761NsSg1GRjG2-41">
                    <mxGeometry x="108" width="107" height="40" as="geometry">
                        <mxRectangle width="107" height="40" as="alternateBounds"/>
                    </mxGeometry>
                </mxCell>
                <mxCell id="98AjTZE761NsSg1GRjG2-44" style="shape=partialRectangle;html=1;whiteSpace=wrap;connectable=0;fillColor=none;top=0;left=0;bottom=0;right=0;overflow=hidden;pointerEvents=1;rounded=1;labelBackgroundColor=#ffffff;fontSize=20;fontColor=#000000;" vertex="1" parent="98AjTZE761NsSg1GRjG2-41">
                    <mxGeometry x="215" width="108" height="40" as="geometry">
                        <mxRectangle width="108" height="40" as="alternateBounds"/>
                    </mxGeometry>
                </mxCell>
                <mxCell id="98AjTZE761NsSg1GRjG2-45" style="shape=partialRectangle;html=1;whiteSpace=wrap;connectable=0;fillColor=none;top=0;left=0;bottom=0;right=0;overflow=hidden;pointerEvents=1;rounded=1;labelBackgroundColor=#ffffff;fontSize=20;fontColor=#000000;" vertex="1" parent="98AjTZE761NsSg1GRjG2-41">
                    <mxGeometry x="323" width="108" height="40" as="geometry">
                        <mxRectangle width="108" height="40" as="alternateBounds"/>
                    </mxGeometry>
                </mxCell>
                <mxCell id="98AjTZE761NsSg1GRjG2-46" style="shape=partialRectangle;html=1;whiteSpace=wrap;connectable=0;fillColor=none;top=0;left=0;bottom=0;right=0;overflow=hidden;pointerEvents=1;rounded=1;labelBackgroundColor=#ffffff;fontSize=20;fontColor=#000000;" vertex="1" parent="98AjTZE761NsSg1GRjG2-41">
                    <mxGeometry x="431" width="89" height="40" as="geometry">
                        <mxRectangle width="89" height="40" as="alternateBounds"/>
                    </mxGeometry>
                </mxCell>
                <mxCell id="98AjTZE761NsSg1GRjG2-47" style="shape=tableRow;horizontal=0;startSize=0;swimlaneHead=0;swimlaneBody=0;top=0;left=0;bottom=0;right=0;collapsible=0;dropTarget=0;fillColor=none;points=[[0,0.5],[1,0.5]];portConstraint=eastwest;rounded=1;labelBackgroundColor=#ffffff;fontSize=20;fontColor=#000000;" vertex="1" parent="98AjTZE761NsSg1GRjG2-16">
                    <mxGeometry y="200" width="520" height="40" as="geometry"/>
                </mxCell>
                <mxCell id="98AjTZE761NsSg1GRjG2-48" style="shape=partialRectangle;html=1;whiteSpace=wrap;connectable=0;fillColor=none;top=0;left=0;bottom=0;right=0;overflow=hidden;rounded=1;labelBackgroundColor=#ffffff;fontSize=20;fontColor=#000000;" vertex="1" parent="98AjTZE761NsSg1GRjG2-47">
                    <mxGeometry width="108" height="40" as="geometry">
                        <mxRectangle width="108" height="40" as="alternateBounds"/>
                    </mxGeometry>
                </mxCell>
                <mxCell id="98AjTZE761NsSg1GRjG2-49" style="shape=partialRectangle;html=1;whiteSpace=wrap;connectable=0;fillColor=none;top=0;left=0;bottom=0;right=0;overflow=hidden;rounded=1;labelBackgroundColor=#ffffff;fontSize=20;fontColor=#000000;" vertex="1" parent="98AjTZE761NsSg1GRjG2-47">
                    <mxGeometry x="108" width="107" height="40" as="geometry">
                        <mxRectangle width="107" height="40" as="alternateBounds"/>
                    </mxGeometry>
                </mxCell>
                <mxCell id="98AjTZE761NsSg1GRjG2-50" style="shape=partialRectangle;html=1;whiteSpace=wrap;connectable=0;fillColor=none;top=0;left=0;bottom=0;right=0;overflow=hidden;pointerEvents=1;rounded=1;labelBackgroundColor=#ffffff;fontSize=20;fontColor=#000000;" vertex="1" parent="98AjTZE761NsSg1GRjG2-47">
                    <mxGeometry x="215" width="108" height="40" as="geometry">
                        <mxRectangle width="108" height="40" as="alternateBounds"/>
                    </mxGeometry>
                </mxCell>
                <mxCell id="98AjTZE761NsSg1GRjG2-51" style="shape=partialRectangle;html=1;whiteSpace=wrap;connectable=0;fillColor=none;top=0;left=0;bottom=0;right=0;overflow=hidden;pointerEvents=1;rounded=1;labelBackgroundColor=#ffffff;fontSize=20;fontColor=#000000;" vertex="1" parent="98AjTZE761NsSg1GRjG2-47">
                    <mxGeometry x="323" width="108" height="40" as="geometry">
                        <mxRectangle width="108" height="40" as="alternateBounds"/>
                    </mxGeometry>
                </mxCell>
                <mxCell id="98AjTZE761NsSg1GRjG2-52" style="shape=partialRectangle;html=1;whiteSpace=wrap;connectable=0;fillColor=none;top=0;left=0;bottom=0;right=0;overflow=hidden;pointerEvents=1;rounded=1;labelBackgroundColor=#ffffff;fontSize=20;fontColor=#000000;" vertex="1" parent="98AjTZE761NsSg1GRjG2-47">
                    <mxGeometry x="431" width="89" height="40" as="geometry">
                        <mxRectangle width="89" height="40" as="alternateBounds"/>
                    </mxGeometry>
                </mxCell>
                <mxCell id="98AjTZE761NsSg1GRjG2-53" value="" style="rounded=1;whiteSpace=wrap;html=1;labelBackgroundColor=#ffffff;fontSize=13;fontColor=#000000;" vertex="1" parent="Fq9fPvSMB5XCuXRLtOgb-1">
                    <mxGeometry x="710" y="200" width="70" height="20" as="geometry"/>
                </mxCell>
                <mxCell id="98AjTZE761NsSg1GRjG2-54" value="&lt;font style=&quot;font-size: 12px&quot;&gt;Pencarian&lt;/font&gt;" style="text;html=1;strokeColor=none;fillColor=none;align=center;verticalAlign=middle;whiteSpace=wrap;rounded=0;labelBackgroundColor=#ffffff;fontSize=13;fontColor=#000000;" vertex="1" parent="Fq9fPvSMB5XCuXRLtOgb-1">
                    <mxGeometry x="640" y="195" width="60" height="30" as="geometry"/>
                </mxCell>
                <mxCell id="98AjTZE761NsSg1GRjG2-55" value="10" style="rounded=1;whiteSpace=wrap;html=1;labelBackgroundColor=#ffffff;fontSize=13;fontColor=#000000;" vertex="1" parent="Fq9fPvSMB5XCuXRLtOgb-1">
                    <mxGeometry x="320" y="205" width="20" height="20" as="geometry"/>
                </mxCell>
                <mxCell id="98AjTZE761NsSg1GRjG2-56" value="&lt;font style=&quot;font-size: 12px&quot;&gt;Tampilkan&lt;/font&gt;" style="text;html=1;strokeColor=none;fillColor=none;align=left;verticalAlign=middle;whiteSpace=wrap;rounded=0;labelBackgroundColor=#ffffff;fontSize=13;fontColor=#000000;" vertex="1" parent="Fq9fPvSMB5XCuXRLtOgb-1">
                    <mxGeometry x="260" y="200" width="60" height="30" as="geometry"/>
                </mxCell>
                <mxCell id="98AjTZE761NsSg1GRjG2-57" value="&lt;font style=&quot;font-size: 12px&quot;&gt;data&lt;/font&gt;" style="text;html=1;strokeColor=none;fillColor=none;align=left;verticalAlign=middle;whiteSpace=wrap;rounded=0;labelBackgroundColor=#ffffff;fontSize=13;fontColor=#000000;" vertex="1" parent="Fq9fPvSMB5XCuXRLtOgb-1">
                    <mxGeometry x="350" y="200" width="30" height="30" as="geometry"/>
                </mxCell>
                <mxCell id="98AjTZE761NsSg1GRjG2-58" value="Tambah" style="rounded=1;whiteSpace=wrap;html=1;labelBackgroundColor=#ffffff;fontSize=15;fontColor=#000000;" vertex="1" parent="Fq9fPvSMB5XCuXRLtOgb-1">
                    <mxGeometry x="260" y="157.5" width="70" height="30" as="geometry"/>
                </mxCell>
            </root>
        </mxGraphModel>
    </diagram>
    <diagram id="nqZ-r0fg1GJRyYPCOcSW" name="Pengguna">
        <mxGraphModel dx="1298" dy="685" grid="1" gridSize="10" guides="1" tooltips="1" connect="1" arrows="1" fold="1" page="1" pageScale="1" pageWidth="850" pageHeight="1100" math="0" shadow="0">
            <root>
                <mxCell id="U4zfYBJj5pdT0kxjrbgH-0"/>
                <mxCell id="U4zfYBJj5pdT0kxjrbgH-1" parent="U4zfYBJj5pdT0kxjrbgH-0"/>
                <mxCell id="U4zfYBJj5pdT0kxjrbgH-2" value="" style="rounded=0;whiteSpace=wrap;html=1;" vertex="1" parent="U4zfYBJj5pdT0kxjrbgH-1">
                    <mxGeometry x="40" y="40" width="760" height="440" as="geometry"/>
                </mxCell>
                <mxCell id="U4zfYBJj5pdT0kxjrbgH-3" value="SIM Arsip DLH Kota Madiun" style="rounded=0;whiteSpace=wrap;html=1;fontSize=16;align=left;" vertex="1" parent="U4zfYBJj5pdT0kxjrbgH-1">
                    <mxGeometry x="40" y="40" width="760" height="60" as="geometry"/>
                </mxCell>
                <mxCell id="U4zfYBJj5pdT0kxjrbgH-4" value="Keluar" style="rounded=0;whiteSpace=wrap;html=1;labelBackgroundColor=#ffffff;fontSize=16;fontColor=#000000;" vertex="1" parent="U4zfYBJj5pdT0kxjrbgH-1">
                    <mxGeometry x="720" y="40" width="80" height="60" as="geometry"/>
                </mxCell>
                <mxCell id="U4zfYBJj5pdT0kxjrbgH-5" value="" style="rounded=0;whiteSpace=wrap;html=1;labelBackgroundColor=#ffffff;fontSize=16;fontColor=#000000;" vertex="1" parent="U4zfYBJj5pdT0kxjrbgH-1">
                    <mxGeometry x="40" y="100" width="210" height="380" as="geometry"/>
                </mxCell>
                <mxCell id="U4zfYBJj5pdT0kxjrbgH-6" value="Data Arsip" style="text;html=1;strokeColor=none;fillColor=none;align=left;verticalAlign=middle;whiteSpace=wrap;rounded=0;labelBackgroundColor=#ffffff;fontSize=16;fontColor=#000000;" vertex="1" parent="U4zfYBJj5pdT0kxjrbgH-1">
                    <mxGeometry x="50" y="110" width="190" height="30" as="geometry"/>
                </mxCell>
                <mxCell id="U4zfYBJj5pdT0kxjrbgH-7" value="&lt;font style=&quot;font-size: 11px&quot;&gt;Administrator&lt;/font&gt;" style="text;html=1;strokeColor=none;fillColor=none;align=left;verticalAlign=middle;whiteSpace=wrap;rounded=0;labelBackgroundColor=#ffffff;fontSize=16;fontColor=#000000;" vertex="1" parent="U4zfYBJj5pdT0kxjrbgH-1">
                    <mxGeometry x="50" y="140" width="70" height="20" as="geometry"/>
                </mxCell>
                <mxCell id="U4zfYBJj5pdT0kxjrbgH-8" value="Arsip Bidang" style="text;html=1;strokeColor=none;fillColor=none;align=left;verticalAlign=middle;whiteSpace=wrap;rounded=0;labelBackgroundColor=#ffffff;fontSize=16;fontColor=#000000;" vertex="1" parent="U4zfYBJj5pdT0kxjrbgH-1">
                    <mxGeometry x="50" y="160" width="190" height="30" as="geometry"/>
                </mxCell>
                <mxCell id="U4zfYBJj5pdT0kxjrbgH-9" value="" style="rounded=0;whiteSpace=wrap;html=1;labelBackgroundColor=#ffffff;fontSize=11;fontColor=#000000;" vertex="1" parent="U4zfYBJj5pdT0kxjrbgH-1">
                    <mxGeometry x="50" y="190" width="190" height="80" as="geometry"/>
                </mxCell>
                <mxCell id="U4zfYBJj5pdT0kxjrbgH-10" value="&lt;font style=&quot;font-size: 14px&quot;&gt;Bidang 1&lt;/font&gt;" style="rounded=0;whiteSpace=wrap;html=1;labelBackgroundColor=#ffffff;fontSize=11;fontColor=#000000;" vertex="1" parent="U4zfYBJj5pdT0kxjrbgH-1">
                    <mxGeometry x="50" y="190" width="190" height="40" as="geometry"/>
                </mxCell>
                <mxCell id="U4zfYBJj5pdT0kxjrbgH-11" value="&lt;font style=&quot;font-size: 14px&quot;&gt;Bidang 2&lt;/font&gt;" style="rounded=0;whiteSpace=wrap;html=1;labelBackgroundColor=#ffffff;fontSize=11;fontColor=#000000;" vertex="1" parent="U4zfYBJj5pdT0kxjrbgH-1">
                    <mxGeometry x="50" y="230" width="190" height="40" as="geometry"/>
                </mxCell>
                <mxCell id="U4zfYBJj5pdT0kxjrbgH-12" value="Kategori" style="text;html=1;strokeColor=none;fillColor=none;align=left;verticalAlign=middle;whiteSpace=wrap;rounded=0;labelBackgroundColor=#ffffff;fontSize=16;fontColor=#000000;" vertex="1" parent="U4zfYBJj5pdT0kxjrbgH-1">
                    <mxGeometry x="50" y="280" width="190" height="30" as="geometry"/>
                </mxCell>
                <mxCell id="U4zfYBJj5pdT0kxjrbgH-13" value="Bidang" style="text;html=1;strokeColor=none;fillColor=none;align=left;verticalAlign=middle;whiteSpace=wrap;rounded=0;labelBackgroundColor=#ffffff;fontSize=16;fontColor=#000000;" vertex="1" parent="U4zfYBJj5pdT0kxjrbgH-1">
                    <mxGeometry x="50" y="310" width="190" height="30" as="geometry"/>
                </mxCell>
                <mxCell id="U4zfYBJj5pdT0kxjrbgH-14" value="Pengguna" style="text;html=1;strokeColor=none;fillColor=none;align=left;verticalAlign=middle;whiteSpace=wrap;rounded=0;labelBackgroundColor=#ffffff;fontSize=16;fontColor=#000000;" vertex="1" parent="U4zfYBJj5pdT0kxjrbgH-1">
                    <mxGeometry x="50" y="340" width="190" height="30" as="geometry"/>
                </mxCell>
                <mxCell id="U4zfYBJj5pdT0kxjrbgH-15" value="&lt;font style=&quot;font-size: 11px&quot;&gt;Sistem&lt;/font&gt;" style="text;html=1;strokeColor=none;fillColor=none;align=left;verticalAlign=middle;whiteSpace=wrap;rounded=0;labelBackgroundColor=#ffffff;fontSize=16;fontColor=#000000;" vertex="1" parent="U4zfYBJj5pdT0kxjrbgH-1">
                    <mxGeometry x="50" y="370" width="70" height="20" as="geometry"/>
                </mxCell>
                <mxCell id="U4zfYBJj5pdT0kxjrbgH-16" value="Ganti Password" style="text;html=1;strokeColor=none;fillColor=none;align=left;verticalAlign=middle;whiteSpace=wrap;rounded=0;labelBackgroundColor=#ffffff;fontSize=16;fontColor=#000000;" vertex="1" parent="U4zfYBJj5pdT0kxjrbgH-1">
                    <mxGeometry x="50" y="390" width="190" height="30" as="geometry"/>
                </mxCell>
                <mxCell id="U4zfYBJj5pdT0kxjrbgH-17" value="Halaman Pengelolaan Pengguna" style="text;html=1;strokeColor=none;fillColor=none;align=left;verticalAlign=middle;whiteSpace=wrap;rounded=0;labelBackgroundColor=#ffffff;fontSize=20;fontColor=#000000;fontStyle=0" vertex="1" parent="U4zfYBJj5pdT0kxjrbgH-1">
                    <mxGeometry x="260" y="110" width="360" height="30" as="geometry"/>
                </mxCell>
                <mxCell id="U4zfYBJj5pdT0kxjrbgH-18" value="" style="shape=table;html=1;whiteSpace=wrap;startSize=0;container=1;collapsible=0;childLayout=tableLayout;rounded=1;labelBackgroundColor=#ffffff;fontSize=12;fontColor=#000000;" vertex="1" parent="U4zfYBJj5pdT0kxjrbgH-1">
                    <mxGeometry x="260" y="230" width="520" height="240" as="geometry"/>
                </mxCell>
                <mxCell id="U4zfYBJj5pdT0kxjrbgH-19" value="" style="shape=tableRow;horizontal=0;startSize=0;swimlaneHead=0;swimlaneBody=0;top=0;left=0;bottom=0;right=0;collapsible=0;dropTarget=0;fillColor=none;points=[[0,0.5],[1,0.5]];portConstraint=eastwest;rounded=1;labelBackgroundColor=#ffffff;fontSize=20;fontColor=#000000;" vertex="1" parent="U4zfYBJj5pdT0kxjrbgH-18">
                    <mxGeometry width="520" height="40" as="geometry"/>
                </mxCell>
                <mxCell id="U4zfYBJj5pdT0kxjrbgH-20" value="#" style="shape=partialRectangle;html=1;whiteSpace=wrap;connectable=0;fillColor=none;top=0;left=0;bottom=0;right=0;overflow=hidden;rounded=1;labelBackgroundColor=#ffffff;fontSize=13;fontColor=#000000;" vertex="1" parent="U4zfYBJj5pdT0kxjrbgH-19">
                    <mxGeometry width="77" height="40" as="geometry">
                        <mxRectangle width="77" height="40" as="alternateBounds"/>
                    </mxGeometry>
                </mxCell>
                <mxCell id="U4zfYBJj5pdT0kxjrbgH-21" value="&lt;font style=&quot;font-size: 13px&quot;&gt;Nama&lt;/font&gt;" style="shape=partialRectangle;html=1;whiteSpace=wrap;connectable=0;fillColor=none;top=0;left=0;bottom=0;right=0;overflow=hidden;rounded=1;labelBackgroundColor=#ffffff;fontSize=13;fontColor=#000000;" vertex="1" parent="U4zfYBJj5pdT0kxjrbgH-19">
                    <mxGeometry x="77" width="75" height="40" as="geometry">
                        <mxRectangle width="75" height="40" as="alternateBounds"/>
                    </mxGeometry>
                </mxCell>
                <mxCell id="U4zfYBJj5pdT0kxjrbgH-67" value="Email" style="shape=partialRectangle;html=1;whiteSpace=wrap;connectable=0;fillColor=none;top=0;left=0;bottom=0;right=0;overflow=hidden;rounded=1;labelBackgroundColor=#ffffff;fontSize=13;fontColor=#000000;" vertex="1" parent="U4zfYBJj5pdT0kxjrbgH-19">
                    <mxGeometry x="152" width="76" height="40" as="geometry">
                        <mxRectangle width="76" height="40" as="alternateBounds"/>
                    </mxGeometry>
                </mxCell>
                <mxCell id="U4zfYBJj5pdT0kxjrbgH-61" value="Role" style="shape=partialRectangle;html=1;whiteSpace=wrap;connectable=0;fillColor=none;top=0;left=0;bottom=0;right=0;overflow=hidden;rounded=1;labelBackgroundColor=#ffffff;fontSize=13;fontColor=#000000;" vertex="1" parent="U4zfYBJj5pdT0kxjrbgH-19">
                    <mxGeometry x="228" width="76" height="40" as="geometry">
                        <mxRectangle width="76" height="40" as="alternateBounds"/>
                    </mxGeometry>
                </mxCell>
                <mxCell id="U4zfYBJj5pdT0kxjrbgH-22" value="&lt;span&gt;Ditambahkan Pada&lt;/span&gt;" style="shape=partialRectangle;html=1;whiteSpace=wrap;connectable=0;fillColor=none;top=0;left=0;bottom=0;right=0;overflow=hidden;rounded=1;labelBackgroundColor=#ffffff;fontSize=13;fontColor=#000000;" vertex="1" parent="U4zfYBJj5pdT0kxjrbgH-19">
                    <mxGeometry x="304" width="77" height="40" as="geometry">
                        <mxRectangle width="77" height="40" as="alternateBounds"/>
                    </mxGeometry>
                </mxCell>
                <mxCell id="U4zfYBJj5pdT0kxjrbgH-23" value="Terakhir Diubah" style="shape=partialRectangle;html=1;whiteSpace=wrap;connectable=0;fillColor=none;top=0;left=0;bottom=0;right=0;overflow=hidden;rounded=1;labelBackgroundColor=#ffffff;fontSize=13;fontColor=#000000;" vertex="1" parent="U4zfYBJj5pdT0kxjrbgH-19">
                    <mxGeometry x="381" width="76" height="40" as="geometry">
                        <mxRectangle width="76" height="40" as="alternateBounds"/>
                    </mxGeometry>
                </mxCell>
                <mxCell id="U4zfYBJj5pdT0kxjrbgH-24" value="&lt;span style=&quot;font-size: 13px;&quot;&gt;Aksi&lt;/span&gt;" style="shape=partialRectangle;html=1;whiteSpace=wrap;connectable=0;fillColor=none;top=0;left=0;bottom=0;right=0;overflow=hidden;rounded=1;labelBackgroundColor=#ffffff;fontSize=13;fontColor=#000000;" vertex="1" parent="U4zfYBJj5pdT0kxjrbgH-19">
                    <mxGeometry x="457" width="63" height="40" as="geometry">
                        <mxRectangle width="63" height="40" as="alternateBounds"/>
                    </mxGeometry>
                </mxCell>
                <mxCell id="U4zfYBJj5pdT0kxjrbgH-25" value="" style="shape=tableRow;horizontal=0;startSize=0;swimlaneHead=0;swimlaneBody=0;top=0;left=0;bottom=0;right=0;collapsible=0;dropTarget=0;fillColor=none;points=[[0,0.5],[1,0.5]];portConstraint=eastwest;rounded=1;labelBackgroundColor=#ffffff;fontSize=20;fontColor=#000000;" vertex="1" parent="U4zfYBJj5pdT0kxjrbgH-18">
                    <mxGeometry y="40" width="520" height="40" as="geometry"/>
                </mxCell>
                <mxCell id="U4zfYBJj5pdT0kxjrbgH-26" value="" style="shape=partialRectangle;html=1;whiteSpace=wrap;connectable=0;fillColor=none;top=0;left=0;bottom=0;right=0;overflow=hidden;rounded=1;labelBackgroundColor=#ffffff;fontSize=20;fontColor=#000000;" vertex="1" parent="U4zfYBJj5pdT0kxjrbgH-25">
                    <mxGeometry width="77" height="40" as="geometry">
                        <mxRectangle width="77" height="40" as="alternateBounds"/>
                    </mxGeometry>
                </mxCell>
                <mxCell id="U4zfYBJj5pdT0kxjrbgH-27" value="" style="shape=partialRectangle;html=1;whiteSpace=wrap;connectable=0;fillColor=none;top=0;left=0;bottom=0;right=0;overflow=hidden;rounded=1;labelBackgroundColor=#ffffff;fontSize=20;fontColor=#000000;" vertex="1" parent="U4zfYBJj5pdT0kxjrbgH-25">
                    <mxGeometry x="77" width="75" height="40" as="geometry">
                        <mxRectangle width="75" height="40" as="alternateBounds"/>
                    </mxGeometry>
                </mxCell>
                <mxCell id="U4zfYBJj5pdT0kxjrbgH-68" style="shape=partialRectangle;html=1;whiteSpace=wrap;connectable=0;fillColor=none;top=0;left=0;bottom=0;right=0;overflow=hidden;rounded=1;labelBackgroundColor=#ffffff;fontSize=20;fontColor=#000000;" vertex="1" parent="U4zfYBJj5pdT0kxjrbgH-25">
                    <mxGeometry x="152" width="76" height="40" as="geometry">
                        <mxRectangle width="76" height="40" as="alternateBounds"/>
                    </mxGeometry>
                </mxCell>
                <mxCell id="U4zfYBJj5pdT0kxjrbgH-62" style="shape=partialRectangle;html=1;whiteSpace=wrap;connectable=0;fillColor=none;top=0;left=0;bottom=0;right=0;overflow=hidden;rounded=1;labelBackgroundColor=#ffffff;fontSize=20;fontColor=#000000;" vertex="1" parent="U4zfYBJj5pdT0kxjrbgH-25">
                    <mxGeometry x="228" width="76" height="40" as="geometry">
                        <mxRectangle width="76" height="40" as="alternateBounds"/>
                    </mxGeometry>
                </mxCell>
                <mxCell id="U4zfYBJj5pdT0kxjrbgH-28" value="" style="shape=partialRectangle;html=1;whiteSpace=wrap;connectable=0;fillColor=none;top=0;left=0;bottom=0;right=0;overflow=hidden;rounded=1;labelBackgroundColor=#ffffff;fontSize=20;fontColor=#000000;" vertex="1" parent="U4zfYBJj5pdT0kxjrbgH-25">
                    <mxGeometry x="304" width="77" height="40" as="geometry">
                        <mxRectangle width="77" height="40" as="alternateBounds"/>
                    </mxGeometry>
                </mxCell>
                <mxCell id="U4zfYBJj5pdT0kxjrbgH-29" style="shape=partialRectangle;html=1;whiteSpace=wrap;connectable=0;fillColor=none;top=0;left=0;bottom=0;right=0;overflow=hidden;rounded=1;labelBackgroundColor=#ffffff;fontSize=20;fontColor=#000000;" vertex="1" parent="U4zfYBJj5pdT0kxjrbgH-25">
                    <mxGeometry x="381" width="76" height="40" as="geometry">
                        <mxRectangle width="76" height="40" as="alternateBounds"/>
                    </mxGeometry>
                </mxCell>
                <mxCell id="U4zfYBJj5pdT0kxjrbgH-30" style="shape=partialRectangle;html=1;whiteSpace=wrap;connectable=0;fillColor=none;top=0;left=0;bottom=0;right=0;overflow=hidden;rounded=1;labelBackgroundColor=#ffffff;fontSize=20;fontColor=#000000;" vertex="1" parent="U4zfYBJj5pdT0kxjrbgH-25">
                    <mxGeometry x="457" width="63" height="40" as="geometry">
                        <mxRectangle width="63" height="40" as="alternateBounds"/>
                    </mxGeometry>
                </mxCell>
                <mxCell id="U4zfYBJj5pdT0kxjrbgH-31" value="" style="shape=tableRow;horizontal=0;startSize=0;swimlaneHead=0;swimlaneBody=0;top=0;left=0;bottom=0;right=0;collapsible=0;dropTarget=0;fillColor=none;points=[[0,0.5],[1,0.5]];portConstraint=eastwest;rounded=1;labelBackgroundColor=#ffffff;fontSize=20;fontColor=#000000;" vertex="1" parent="U4zfYBJj5pdT0kxjrbgH-18">
                    <mxGeometry y="80" width="520" height="40" as="geometry"/>
                </mxCell>
                <mxCell id="U4zfYBJj5pdT0kxjrbgH-32" value="" style="shape=partialRectangle;html=1;whiteSpace=wrap;connectable=0;fillColor=none;top=0;left=0;bottom=0;right=0;overflow=hidden;rounded=1;labelBackgroundColor=#ffffff;fontSize=20;fontColor=#000000;" vertex="1" parent="U4zfYBJj5pdT0kxjrbgH-31">
                    <mxGeometry width="77" height="40" as="geometry">
                        <mxRectangle width="77" height="40" as="alternateBounds"/>
                    </mxGeometry>
                </mxCell>
                <mxCell id="U4zfYBJj5pdT0kxjrbgH-33" value="" style="shape=partialRectangle;html=1;whiteSpace=wrap;connectable=0;fillColor=none;top=0;left=0;bottom=0;right=0;overflow=hidden;rounded=1;labelBackgroundColor=#ffffff;fontSize=20;fontColor=#000000;" vertex="1" parent="U4zfYBJj5pdT0kxjrbgH-31">
                    <mxGeometry x="77" width="75" height="40" as="geometry">
                        <mxRectangle width="75" height="40" as="alternateBounds"/>
                    </mxGeometry>
                </mxCell>
                <mxCell id="U4zfYBJj5pdT0kxjrbgH-69" style="shape=partialRectangle;html=1;whiteSpace=wrap;connectable=0;fillColor=none;top=0;left=0;bottom=0;right=0;overflow=hidden;rounded=1;labelBackgroundColor=#ffffff;fontSize=20;fontColor=#000000;" vertex="1" parent="U4zfYBJj5pdT0kxjrbgH-31">
                    <mxGeometry x="152" width="76" height="40" as="geometry">
                        <mxRectangle width="76" height="40" as="alternateBounds"/>
                    </mxGeometry>
                </mxCell>
                <mxCell id="U4zfYBJj5pdT0kxjrbgH-63" style="shape=partialRectangle;html=1;whiteSpace=wrap;connectable=0;fillColor=none;top=0;left=0;bottom=0;right=0;overflow=hidden;rounded=1;labelBackgroundColor=#ffffff;fontSize=20;fontColor=#000000;" vertex="1" parent="U4zfYBJj5pdT0kxjrbgH-31">
                    <mxGeometry x="228" width="76" height="40" as="geometry">
                        <mxRectangle width="76" height="40" as="alternateBounds"/>
                    </mxGeometry>
                </mxCell>
                <mxCell id="U4zfYBJj5pdT0kxjrbgH-34" value="" style="shape=partialRectangle;html=1;whiteSpace=wrap;connectable=0;fillColor=none;top=0;left=0;bottom=0;right=0;overflow=hidden;pointerEvents=1;rounded=1;labelBackgroundColor=#ffffff;fontSize=20;fontColor=#000000;" vertex="1" parent="U4zfYBJj5pdT0kxjrbgH-31">
                    <mxGeometry x="304" width="77" height="40" as="geometry">
                        <mxRectangle width="77" height="40" as="alternateBounds"/>
                    </mxGeometry>
                </mxCell>
                <mxCell id="U4zfYBJj5pdT0kxjrbgH-35" style="shape=partialRectangle;html=1;whiteSpace=wrap;connectable=0;fillColor=none;top=0;left=0;bottom=0;right=0;overflow=hidden;pointerEvents=1;rounded=1;labelBackgroundColor=#ffffff;fontSize=20;fontColor=#000000;" vertex="1" parent="U4zfYBJj5pdT0kxjrbgH-31">
                    <mxGeometry x="381" width="76" height="40" as="geometry">
                        <mxRectangle width="76" height="40" as="alternateBounds"/>
                    </mxGeometry>
                </mxCell>
                <mxCell id="U4zfYBJj5pdT0kxjrbgH-36" style="shape=partialRectangle;html=1;whiteSpace=wrap;connectable=0;fillColor=none;top=0;left=0;bottom=0;right=0;overflow=hidden;pointerEvents=1;rounded=1;labelBackgroundColor=#ffffff;fontSize=20;fontColor=#000000;" vertex="1" parent="U4zfYBJj5pdT0kxjrbgH-31">
                    <mxGeometry x="457" width="63" height="40" as="geometry">
                        <mxRectangle width="63" height="40" as="alternateBounds"/>
                    </mxGeometry>
                </mxCell>
                <mxCell id="U4zfYBJj5pdT0kxjrbgH-37" style="shape=tableRow;horizontal=0;startSize=0;swimlaneHead=0;swimlaneBody=0;top=0;left=0;bottom=0;right=0;collapsible=0;dropTarget=0;fillColor=none;points=[[0,0.5],[1,0.5]];portConstraint=eastwest;rounded=1;labelBackgroundColor=#ffffff;fontSize=20;fontColor=#000000;" vertex="1" parent="U4zfYBJj5pdT0kxjrbgH-18">
                    <mxGeometry y="120" width="520" height="40" as="geometry"/>
                </mxCell>
                <mxCell id="U4zfYBJj5pdT0kxjrbgH-38" style="shape=partialRectangle;html=1;whiteSpace=wrap;connectable=0;fillColor=none;top=0;left=0;bottom=0;right=0;overflow=hidden;rounded=1;labelBackgroundColor=#ffffff;fontSize=20;fontColor=#000000;" vertex="1" parent="U4zfYBJj5pdT0kxjrbgH-37">
                    <mxGeometry width="77" height="40" as="geometry">
                        <mxRectangle width="77" height="40" as="alternateBounds"/>
                    </mxGeometry>
                </mxCell>
                <mxCell id="U4zfYBJj5pdT0kxjrbgH-39" style="shape=partialRectangle;html=1;whiteSpace=wrap;connectable=0;fillColor=none;top=0;left=0;bottom=0;right=0;overflow=hidden;rounded=1;labelBackgroundColor=#ffffff;fontSize=20;fontColor=#000000;" vertex="1" parent="U4zfYBJj5pdT0kxjrbgH-37">
                    <mxGeometry x="77" width="75" height="40" as="geometry">
                        <mxRectangle width="75" height="40" as="alternateBounds"/>
                    </mxGeometry>
                </mxCell>
                <mxCell id="U4zfYBJj5pdT0kxjrbgH-70" style="shape=partialRectangle;html=1;whiteSpace=wrap;connectable=0;fillColor=none;top=0;left=0;bottom=0;right=0;overflow=hidden;rounded=1;labelBackgroundColor=#ffffff;fontSize=20;fontColor=#000000;" vertex="1" parent="U4zfYBJj5pdT0kxjrbgH-37">
                    <mxGeometry x="152" width="76" height="40" as="geometry">
                        <mxRectangle width="76" height="40" as="alternateBounds"/>
                    </mxGeometry>
                </mxCell>
                <mxCell id="U4zfYBJj5pdT0kxjrbgH-64" style="shape=partialRectangle;html=1;whiteSpace=wrap;connectable=0;fillColor=none;top=0;left=0;bottom=0;right=0;overflow=hidden;rounded=1;labelBackgroundColor=#ffffff;fontSize=20;fontColor=#000000;" vertex="1" parent="U4zfYBJj5pdT0kxjrbgH-37">
                    <mxGeometry x="228" width="76" height="40" as="geometry">
                        <mxRectangle width="76" height="40" as="alternateBounds"/>
                    </mxGeometry>
                </mxCell>
                <mxCell id="U4zfYBJj5pdT0kxjrbgH-40" style="shape=partialRectangle;html=1;whiteSpace=wrap;connectable=0;fillColor=none;top=0;left=0;bottom=0;right=0;overflow=hidden;pointerEvents=1;rounded=1;labelBackgroundColor=#ffffff;fontSize=20;fontColor=#000000;" vertex="1" parent="U4zfYBJj5pdT0kxjrbgH-37">
                    <mxGeometry x="304" width="77" height="40" as="geometry">
                        <mxRectangle width="77" height="40" as="alternateBounds"/>
                    </mxGeometry>
                </mxCell>
                <mxCell id="U4zfYBJj5pdT0kxjrbgH-41" style="shape=partialRectangle;html=1;whiteSpace=wrap;connectable=0;fillColor=none;top=0;left=0;bottom=0;right=0;overflow=hidden;pointerEvents=1;rounded=1;labelBackgroundColor=#ffffff;fontSize=20;fontColor=#000000;" vertex="1" parent="U4zfYBJj5pdT0kxjrbgH-37">
                    <mxGeometry x="381" width="76" height="40" as="geometry">
                        <mxRectangle width="76" height="40" as="alternateBounds"/>
                    </mxGeometry>
                </mxCell>
                <mxCell id="U4zfYBJj5pdT0kxjrbgH-42" style="shape=partialRectangle;html=1;whiteSpace=wrap;connectable=0;fillColor=none;top=0;left=0;bottom=0;right=0;overflow=hidden;pointerEvents=1;rounded=1;labelBackgroundColor=#ffffff;fontSize=20;fontColor=#000000;" vertex="1" parent="U4zfYBJj5pdT0kxjrbgH-37">
                    <mxGeometry x="457" width="63" height="40" as="geometry">
                        <mxRectangle width="63" height="40" as="alternateBounds"/>
                    </mxGeometry>
                </mxCell>
                <mxCell id="U4zfYBJj5pdT0kxjrbgH-43" style="shape=tableRow;horizontal=0;startSize=0;swimlaneHead=0;swimlaneBody=0;top=0;left=0;bottom=0;right=0;collapsible=0;dropTarget=0;fillColor=none;points=[[0,0.5],[1,0.5]];portConstraint=eastwest;rounded=1;labelBackgroundColor=#ffffff;fontSize=20;fontColor=#000000;" vertex="1" parent="U4zfYBJj5pdT0kxjrbgH-18">
                    <mxGeometry y="160" width="520" height="40" as="geometry"/>
                </mxCell>
                <mxCell id="U4zfYBJj5pdT0kxjrbgH-44" style="shape=partialRectangle;html=1;whiteSpace=wrap;connectable=0;fillColor=none;top=0;left=0;bottom=0;right=0;overflow=hidden;rounded=1;labelBackgroundColor=#ffffff;fontSize=20;fontColor=#000000;" vertex="1" parent="U4zfYBJj5pdT0kxjrbgH-43">
                    <mxGeometry width="77" height="40" as="geometry">
                        <mxRectangle width="77" height="40" as="alternateBounds"/>
                    </mxGeometry>
                </mxCell>
                <mxCell id="U4zfYBJj5pdT0kxjrbgH-45" style="shape=partialRectangle;html=1;whiteSpace=wrap;connectable=0;fillColor=none;top=0;left=0;bottom=0;right=0;overflow=hidden;rounded=1;labelBackgroundColor=#ffffff;fontSize=20;fontColor=#000000;" vertex="1" parent="U4zfYBJj5pdT0kxjrbgH-43">
                    <mxGeometry x="77" width="75" height="40" as="geometry">
                        <mxRectangle width="75" height="40" as="alternateBounds"/>
                    </mxGeometry>
                </mxCell>
                <mxCell id="U4zfYBJj5pdT0kxjrbgH-71" style="shape=partialRectangle;html=1;whiteSpace=wrap;connectable=0;fillColor=none;top=0;left=0;bottom=0;right=0;overflow=hidden;rounded=1;labelBackgroundColor=#ffffff;fontSize=20;fontColor=#000000;" vertex="1" parent="U4zfYBJj5pdT0kxjrbgH-43">
                    <mxGeometry x="152" width="76" height="40" as="geometry">
                        <mxRectangle width="76" height="40" as="alternateBounds"/>
                    </mxGeometry>
                </mxCell>
                <mxCell id="U4zfYBJj5pdT0kxjrbgH-65" style="shape=partialRectangle;html=1;whiteSpace=wrap;connectable=0;fillColor=none;top=0;left=0;bottom=0;right=0;overflow=hidden;rounded=1;labelBackgroundColor=#ffffff;fontSize=20;fontColor=#000000;" vertex="1" parent="U4zfYBJj5pdT0kxjrbgH-43">
                    <mxGeometry x="228" width="76" height="40" as="geometry">
                        <mxRectangle width="76" height="40" as="alternateBounds"/>
                    </mxGeometry>
                </mxCell>
                <mxCell id="U4zfYBJj5pdT0kxjrbgH-46" style="shape=partialRectangle;html=1;whiteSpace=wrap;connectable=0;fillColor=none;top=0;left=0;bottom=0;right=0;overflow=hidden;pointerEvents=1;rounded=1;labelBackgroundColor=#ffffff;fontSize=20;fontColor=#000000;" vertex="1" parent="U4zfYBJj5pdT0kxjrbgH-43">
                    <mxGeometry x="304" width="77" height="40" as="geometry">
                        <mxRectangle width="77" height="40" as="alternateBounds"/>
                    </mxGeometry>
                </mxCell>
                <mxCell id="U4zfYBJj5pdT0kxjrbgH-47" style="shape=partialRectangle;html=1;whiteSpace=wrap;connectable=0;fillColor=none;top=0;left=0;bottom=0;right=0;overflow=hidden;pointerEvents=1;rounded=1;labelBackgroundColor=#ffffff;fontSize=20;fontColor=#000000;" vertex="1" parent="U4zfYBJj5pdT0kxjrbgH-43">
                    <mxGeometry x="381" width="76" height="40" as="geometry">
                        <mxRectangle width="76" height="40" as="alternateBounds"/>
                    </mxGeometry>
                </mxCell>
                <mxCell id="U4zfYBJj5pdT0kxjrbgH-48" style="shape=partialRectangle;html=1;whiteSpace=wrap;connectable=0;fillColor=none;top=0;left=0;bottom=0;right=0;overflow=hidden;pointerEvents=1;rounded=1;labelBackgroundColor=#ffffff;fontSize=20;fontColor=#000000;" vertex="1" parent="U4zfYBJj5pdT0kxjrbgH-43">
                    <mxGeometry x="457" width="63" height="40" as="geometry">
                        <mxRectangle width="63" height="40" as="alternateBounds"/>
                    </mxGeometry>
                </mxCell>
                <mxCell id="U4zfYBJj5pdT0kxjrbgH-49" style="shape=tableRow;horizontal=0;startSize=0;swimlaneHead=0;swimlaneBody=0;top=0;left=0;bottom=0;right=0;collapsible=0;dropTarget=0;fillColor=none;points=[[0,0.5],[1,0.5]];portConstraint=eastwest;rounded=1;labelBackgroundColor=#ffffff;fontSize=20;fontColor=#000000;" vertex="1" parent="U4zfYBJj5pdT0kxjrbgH-18">
                    <mxGeometry y="200" width="520" height="40" as="geometry"/>
                </mxCell>
                <mxCell id="U4zfYBJj5pdT0kxjrbgH-50" style="shape=partialRectangle;html=1;whiteSpace=wrap;connectable=0;fillColor=none;top=0;left=0;bottom=0;right=0;overflow=hidden;rounded=1;labelBackgroundColor=#ffffff;fontSize=20;fontColor=#000000;" vertex="1" parent="U4zfYBJj5pdT0kxjrbgH-49">
                    <mxGeometry width="77" height="40" as="geometry">
                        <mxRectangle width="77" height="40" as="alternateBounds"/>
                    </mxGeometry>
                </mxCell>
                <mxCell id="U4zfYBJj5pdT0kxjrbgH-51" style="shape=partialRectangle;html=1;whiteSpace=wrap;connectable=0;fillColor=none;top=0;left=0;bottom=0;right=0;overflow=hidden;rounded=1;labelBackgroundColor=#ffffff;fontSize=20;fontColor=#000000;" vertex="1" parent="U4zfYBJj5pdT0kxjrbgH-49">
                    <mxGeometry x="77" width="75" height="40" as="geometry">
                        <mxRectangle width="75" height="40" as="alternateBounds"/>
                    </mxGeometry>
                </mxCell>
                <mxCell id="U4zfYBJj5pdT0kxjrbgH-72" style="shape=partialRectangle;html=1;whiteSpace=wrap;connectable=0;fillColor=none;top=0;left=0;bottom=0;right=0;overflow=hidden;rounded=1;labelBackgroundColor=#ffffff;fontSize=20;fontColor=#000000;" vertex="1" parent="U4zfYBJj5pdT0kxjrbgH-49">
                    <mxGeometry x="152" width="76" height="40" as="geometry">
                        <mxRectangle width="76" height="40" as="alternateBounds"/>
                    </mxGeometry>
                </mxCell>
                <mxCell id="U4zfYBJj5pdT0kxjrbgH-66" style="shape=partialRectangle;html=1;whiteSpace=wrap;connectable=0;fillColor=none;top=0;left=0;bottom=0;right=0;overflow=hidden;rounded=1;labelBackgroundColor=#ffffff;fontSize=20;fontColor=#000000;" vertex="1" parent="U4zfYBJj5pdT0kxjrbgH-49">
                    <mxGeometry x="228" width="76" height="40" as="geometry">
                        <mxRectangle width="76" height="40" as="alternateBounds"/>
                    </mxGeometry>
                </mxCell>
                <mxCell id="U4zfYBJj5pdT0kxjrbgH-52" style="shape=partialRectangle;html=1;whiteSpace=wrap;connectable=0;fillColor=none;top=0;left=0;bottom=0;right=0;overflow=hidden;pointerEvents=1;rounded=1;labelBackgroundColor=#ffffff;fontSize=20;fontColor=#000000;" vertex="1" parent="U4zfYBJj5pdT0kxjrbgH-49">
                    <mxGeometry x="304" width="77" height="40" as="geometry">
                        <mxRectangle width="77" height="40" as="alternateBounds"/>
                    </mxGeometry>
                </mxCell>
                <mxCell id="U4zfYBJj5pdT0kxjrbgH-53" style="shape=partialRectangle;html=1;whiteSpace=wrap;connectable=0;fillColor=none;top=0;left=0;bottom=0;right=0;overflow=hidden;pointerEvents=1;rounded=1;labelBackgroundColor=#ffffff;fontSize=20;fontColor=#000000;" vertex="1" parent="U4zfYBJj5pdT0kxjrbgH-49">
                    <mxGeometry x="381" width="76" height="40" as="geometry">
                        <mxRectangle width="76" height="40" as="alternateBounds"/>
                    </mxGeometry>
                </mxCell>
                <mxCell id="U4zfYBJj5pdT0kxjrbgH-54" style="shape=partialRectangle;html=1;whiteSpace=wrap;connectable=0;fillColor=none;top=0;left=0;bottom=0;right=0;overflow=hidden;pointerEvents=1;rounded=1;labelBackgroundColor=#ffffff;fontSize=20;fontColor=#000000;" vertex="1" parent="U4zfYBJj5pdT0kxjrbgH-49">
                    <mxGeometry x="457" width="63" height="40" as="geometry">
                        <mxRectangle width="63" height="40" as="alternateBounds"/>
                    </mxGeometry>
                </mxCell>
                <mxCell id="U4zfYBJj5pdT0kxjrbgH-55" value="" style="rounded=1;whiteSpace=wrap;html=1;labelBackgroundColor=#ffffff;fontSize=13;fontColor=#000000;" vertex="1" parent="U4zfYBJj5pdT0kxjrbgH-1">
                    <mxGeometry x="710" y="200" width="70" height="20" as="geometry"/>
                </mxCell>
                <mxCell id="U4zfYBJj5pdT0kxjrbgH-56" value="&lt;font style=&quot;font-size: 12px&quot;&gt;Pencarian&lt;/font&gt;" style="text;html=1;strokeColor=none;fillColor=none;align=center;verticalAlign=middle;whiteSpace=wrap;rounded=0;labelBackgroundColor=#ffffff;fontSize=13;fontColor=#000000;" vertex="1" parent="U4zfYBJj5pdT0kxjrbgH-1">
                    <mxGeometry x="640" y="195" width="60" height="30" as="geometry"/>
                </mxCell>
                <mxCell id="U4zfYBJj5pdT0kxjrbgH-57" value="10" style="rounded=1;whiteSpace=wrap;html=1;labelBackgroundColor=#ffffff;fontSize=13;fontColor=#000000;" vertex="1" parent="U4zfYBJj5pdT0kxjrbgH-1">
                    <mxGeometry x="320" y="205" width="20" height="20" as="geometry"/>
                </mxCell>
                <mxCell id="U4zfYBJj5pdT0kxjrbgH-58" value="&lt;font style=&quot;font-size: 12px&quot;&gt;Tampilkan&lt;/font&gt;" style="text;html=1;strokeColor=none;fillColor=none;align=left;verticalAlign=middle;whiteSpace=wrap;rounded=0;labelBackgroundColor=#ffffff;fontSize=13;fontColor=#000000;" vertex="1" parent="U4zfYBJj5pdT0kxjrbgH-1">
                    <mxGeometry x="260" y="200" width="60" height="30" as="geometry"/>
                </mxCell>
                <mxCell id="U4zfYBJj5pdT0kxjrbgH-59" value="&lt;font style=&quot;font-size: 12px&quot;&gt;data&lt;/font&gt;" style="text;html=1;strokeColor=none;fillColor=none;align=left;verticalAlign=middle;whiteSpace=wrap;rounded=0;labelBackgroundColor=#ffffff;fontSize=13;fontColor=#000000;" vertex="1" parent="U4zfYBJj5pdT0kxjrbgH-1">
                    <mxGeometry x="350" y="200" width="30" height="30" as="geometry"/>
                </mxCell>
                <mxCell id="U4zfYBJj5pdT0kxjrbgH-60" value="Tambah" style="rounded=1;whiteSpace=wrap;html=1;labelBackgroundColor=#ffffff;fontSize=15;fontColor=#000000;" vertex="1" parent="U4zfYBJj5pdT0kxjrbgH-1">
                    <mxGeometry x="260" y="157.5" width="70" height="30" as="geometry"/>
                </mxCell>
            </root>
        </mxGraphModel>
    </diagram>
    <diagram id="0ZCqyowPRmwA37cmipZ8" name="Ganti Password">
        <mxGraphModel dx="1103" dy="582" grid="1" gridSize="10" guides="1" tooltips="1" connect="1" arrows="1" fold="1" page="1" pageScale="1" pageWidth="850" pageHeight="1100" math="0" shadow="0">
            <root>
                <mxCell id="8JpT38tLUW86vJuAnt47-0"/>
                <mxCell id="8JpT38tLUW86vJuAnt47-1" parent="8JpT38tLUW86vJuAnt47-0"/>
                <mxCell id="kln-RxXjV1O0nZsIW5R7-0" value="" style="rounded=0;whiteSpace=wrap;html=1;" vertex="1" parent="8JpT38tLUW86vJuAnt47-1">
                    <mxGeometry x="40" y="40" width="760" height="440" as="geometry"/>
                </mxCell>
                <mxCell id="kln-RxXjV1O0nZsIW5R7-1" value="SIM Arsip DLH Kota Madiun" style="rounded=0;whiteSpace=wrap;html=1;fontSize=16;align=left;" vertex="1" parent="8JpT38tLUW86vJuAnt47-1">
                    <mxGeometry x="40" y="40" width="760" height="60" as="geometry"/>
                </mxCell>
                <mxCell id="kln-RxXjV1O0nZsIW5R7-2" value="Keluar" style="rounded=0;whiteSpace=wrap;html=1;labelBackgroundColor=#ffffff;fontSize=16;fontColor=#000000;" vertex="1" parent="8JpT38tLUW86vJuAnt47-1">
                    <mxGeometry x="720" y="40" width="80" height="60" as="geometry"/>
                </mxCell>
                <mxCell id="kln-RxXjV1O0nZsIW5R7-3" value="" style="rounded=0;whiteSpace=wrap;html=1;labelBackgroundColor=#ffffff;fontSize=16;fontColor=#000000;" vertex="1" parent="8JpT38tLUW86vJuAnt47-1">
                    <mxGeometry x="40" y="100" width="210" height="380" as="geometry"/>
                </mxCell>
                <mxCell id="kln-RxXjV1O0nZsIW5R7-4" value="Data Arsip" style="text;html=1;strokeColor=none;fillColor=none;align=left;verticalAlign=middle;whiteSpace=wrap;rounded=0;labelBackgroundColor=#ffffff;fontSize=16;fontColor=#000000;" vertex="1" parent="8JpT38tLUW86vJuAnt47-1">
                    <mxGeometry x="50" y="110" width="190" height="30" as="geometry"/>
                </mxCell>
                <mxCell id="kln-RxXjV1O0nZsIW5R7-5" value="&lt;font style=&quot;font-size: 11px&quot;&gt;Administrator&lt;/font&gt;" style="text;html=1;strokeColor=none;fillColor=none;align=left;verticalAlign=middle;whiteSpace=wrap;rounded=0;labelBackgroundColor=#ffffff;fontSize=16;fontColor=#000000;" vertex="1" parent="8JpT38tLUW86vJuAnt47-1">
                    <mxGeometry x="50" y="140" width="70" height="20" as="geometry"/>
                </mxCell>
                <mxCell id="kln-RxXjV1O0nZsIW5R7-6" value="Arsip Bidang" style="text;html=1;strokeColor=none;fillColor=none;align=left;verticalAlign=middle;whiteSpace=wrap;rounded=0;labelBackgroundColor=#ffffff;fontSize=16;fontColor=#000000;" vertex="1" parent="8JpT38tLUW86vJuAnt47-1">
                    <mxGeometry x="50" y="160" width="190" height="30" as="geometry"/>
                </mxCell>
                <mxCell id="kln-RxXjV1O0nZsIW5R7-7" value="" style="rounded=0;whiteSpace=wrap;html=1;labelBackgroundColor=#ffffff;fontSize=11;fontColor=#000000;" vertex="1" parent="8JpT38tLUW86vJuAnt47-1">
                    <mxGeometry x="50" y="190" width="190" height="80" as="geometry"/>
                </mxCell>
                <mxCell id="kln-RxXjV1O0nZsIW5R7-8" value="&lt;font style=&quot;font-size: 14px&quot;&gt;Bidang 1&lt;/font&gt;" style="rounded=0;whiteSpace=wrap;html=1;labelBackgroundColor=#ffffff;fontSize=11;fontColor=#000000;" vertex="1" parent="8JpT38tLUW86vJuAnt47-1">
                    <mxGeometry x="50" y="190" width="190" height="40" as="geometry"/>
                </mxCell>
                <mxCell id="kln-RxXjV1O0nZsIW5R7-9" value="&lt;font style=&quot;font-size: 14px&quot;&gt;Bidang 2&lt;/font&gt;" style="rounded=0;whiteSpace=wrap;html=1;labelBackgroundColor=#ffffff;fontSize=11;fontColor=#000000;" vertex="1" parent="8JpT38tLUW86vJuAnt47-1">
                    <mxGeometry x="50" y="230" width="190" height="40" as="geometry"/>
                </mxCell>
                <mxCell id="kln-RxXjV1O0nZsIW5R7-10" value="Kategori" style="text;html=1;strokeColor=none;fillColor=none;align=left;verticalAlign=middle;whiteSpace=wrap;rounded=0;labelBackgroundColor=#ffffff;fontSize=16;fontColor=#000000;" vertex="1" parent="8JpT38tLUW86vJuAnt47-1">
                    <mxGeometry x="50" y="280" width="190" height="30" as="geometry"/>
                </mxCell>
                <mxCell id="kln-RxXjV1O0nZsIW5R7-11" value="Bidang" style="text;html=1;strokeColor=none;fillColor=none;align=left;verticalAlign=middle;whiteSpace=wrap;rounded=0;labelBackgroundColor=#ffffff;fontSize=16;fontColor=#000000;" vertex="1" parent="8JpT38tLUW86vJuAnt47-1">
                    <mxGeometry x="50" y="310" width="190" height="30" as="geometry"/>
                </mxCell>
                <mxCell id="kln-RxXjV1O0nZsIW5R7-12" value="Pengguna" style="text;html=1;strokeColor=none;fillColor=none;align=left;verticalAlign=middle;whiteSpace=wrap;rounded=0;labelBackgroundColor=#ffffff;fontSize=16;fontColor=#000000;" vertex="1" parent="8JpT38tLUW86vJuAnt47-1">
                    <mxGeometry x="50" y="340" width="190" height="30" as="geometry"/>
                </mxCell>
                <mxCell id="kln-RxXjV1O0nZsIW5R7-13" value="&lt;font style=&quot;font-size: 11px&quot;&gt;Sistem&lt;/font&gt;" style="text;html=1;strokeColor=none;fillColor=none;align=left;verticalAlign=middle;whiteSpace=wrap;rounded=0;labelBackgroundColor=#ffffff;fontSize=16;fontColor=#000000;" vertex="1" parent="8JpT38tLUW86vJuAnt47-1">
                    <mxGeometry x="50" y="370" width="70" height="20" as="geometry"/>
                </mxCell>
                <mxCell id="kln-RxXjV1O0nZsIW5R7-14" value="Ganti Password" style="text;html=1;strokeColor=none;fillColor=none;align=left;verticalAlign=middle;whiteSpace=wrap;rounded=0;labelBackgroundColor=#ffffff;fontSize=16;fontColor=#000000;" vertex="1" parent="8JpT38tLUW86vJuAnt47-1">
                    <mxGeometry x="50" y="390" width="190" height="30" as="geometry"/>
                </mxCell>
                <mxCell id="kln-RxXjV1O0nZsIW5R7-15" value="Halaman Ganti Password" style="text;html=1;strokeColor=none;fillColor=none;align=left;verticalAlign=middle;whiteSpace=wrap;rounded=0;labelBackgroundColor=#ffffff;fontSize=20;fontColor=#000000;fontStyle=0" vertex="1" parent="8JpT38tLUW86vJuAnt47-1">
                    <mxGeometry x="260" y="110" width="360" height="30" as="geometry"/>
                </mxCell>
                <mxCell id="kln-RxXjV1O0nZsIW5R7-16" value="Password Saat Ini" style="text;html=1;strokeColor=none;fillColor=none;align=left;verticalAlign=middle;whiteSpace=wrap;rounded=0;labelBackgroundColor=#ffffff;fontSize=13;fontColor=#000000;" vertex="1" parent="8JpT38tLUW86vJuAnt47-1">
                    <mxGeometry x="270" y="170" width="110" height="30" as="geometry"/>
                </mxCell>
                <mxCell id="kln-RxXjV1O0nZsIW5R7-17" value="" style="rounded=1;whiteSpace=wrap;html=1;labelBackgroundColor=#ffffff;fontSize=12;fontColor=#000000;" vertex="1" parent="8JpT38tLUW86vJuAnt47-1">
                    <mxGeometry x="270" y="200" width="240" height="20" as="geometry"/>
                </mxCell>
                <mxCell id="kln-RxXjV1O0nZsIW5R7-18" value="Password Baru" style="text;html=1;strokeColor=none;fillColor=none;align=left;verticalAlign=middle;whiteSpace=wrap;rounded=0;labelBackgroundColor=#ffffff;fontSize=13;fontColor=#000000;" vertex="1" parent="8JpT38tLUW86vJuAnt47-1">
                    <mxGeometry x="270" y="225" width="100" height="30" as="geometry"/>
                </mxCell>
                <mxCell id="kln-RxXjV1O0nZsIW5R7-19" value="" style="rounded=1;whiteSpace=wrap;html=1;labelBackgroundColor=#ffffff;fontSize=12;fontColor=#000000;" vertex="1" parent="8JpT38tLUW86vJuAnt47-1">
                    <mxGeometry x="270" y="255" width="240" height="20" as="geometry"/>
                </mxCell>
                <mxCell id="kln-RxXjV1O0nZsIW5R7-20" value="Konfirmasi Password" style="text;html=1;strokeColor=none;fillColor=none;align=left;verticalAlign=middle;whiteSpace=wrap;rounded=0;labelBackgroundColor=#ffffff;fontSize=13;fontColor=#000000;" vertex="1" parent="8JpT38tLUW86vJuAnt47-1">
                    <mxGeometry x="270" y="280" width="130" height="30" as="geometry"/>
                </mxCell>
                <mxCell id="kln-RxXjV1O0nZsIW5R7-21" value="" style="rounded=1;whiteSpace=wrap;html=1;labelBackgroundColor=#ffffff;fontSize=12;fontColor=#000000;" vertex="1" parent="8JpT38tLUW86vJuAnt47-1">
                    <mxGeometry x="270" y="310" width="240" height="20" as="geometry"/>
                </mxCell>
                <mxCell id="kln-RxXjV1O0nZsIW5R7-24" value="Kembali" style="rounded=1;whiteSpace=wrap;html=1;labelBackgroundColor=#ffffff;fontSize=12;fontColor=#000000;" vertex="1" parent="8JpT38tLUW86vJuAnt47-1">
                    <mxGeometry x="270" y="340" width="50" height="20" as="geometry"/>
                </mxCell>
                <mxCell id="kln-RxXjV1O0nZsIW5R7-25" value="Simpan" style="rounded=1;whiteSpace=wrap;html=1;labelBackgroundColor=#ffffff;fontSize=12;fontColor=#000000;" vertex="1" parent="8JpT38tLUW86vJuAnt47-1">
                    <mxGeometry x="330" y="340" width="50" height="20" as="geometry"/>
                </mxCell>
            </root>
        </mxGraphModel>
    </diagram>
</mxfile>